<?xml version="1.0" encoding="UTF-8"?>
<svg xmlns="http://www.w3.org/2000/svg" xmlns:xlink="http://www.w3.org/1999/xlink" width="1920" height="1080" viewBox="0 0 1920 1080">
<defs>
<g>
<g id="glyph-0-0">
<rect x="0" y="0" width="0" height="0" mask="url(#mask-0)"/>
</g>
<g id="glyph-0-1">
<path d="M 5.148438 0 L 5.605469 -2.152344 C 5.714844 -2.636719 5.734375 -3.285156 4.859375 -3.285156 C 4.425781 -3.285156 4.007812 -3.085938 3.65625 -2.695312 C 3.582031 -3.242188 3.089844 -3.285156 2.859375 -3.285156 C 2.339844 -3.285156 1.9375 -2.988281 1.683594 -2.730469 L 1.796875 -3.25 L 1.277344 -3.25 L 0.585938 0 L 1.148438 0 L 1.523438 -1.769531 C 1.632812 -2.261719 1.949219 -2.847656 2.484375 -2.847656 C 3.15625 -2.847656 3.089844 -2.375 3.035156 -2.101562 L 2.585938 0 L 3.148438 0 L 3.523438 -1.769531 C 3.632812 -2.261719 3.949219 -2.847656 4.484375 -2.847656 C 5.15625 -2.847656 5.09375 -2.375 5.035156 -2.101562 L 4.585938 0 Z "/>
</g>
<g id="glyph-0-2">
<path d="M 2.953125 0 L 3.394531 -2.085938 C 3.554688 -2.824219 3.132812 -3.328125 2.46875 -3.328125 C 2 -3.328125 1.652344 -3.214844 1.269531 -3.019531 L 1.214844 -2.542969 C 1.648438 -2.808594 2.023438 -2.902344 2.375 -2.902344 C 2.714844 -2.902344 2.945312 -2.613281 2.832031 -2.082031 L 2.765625 -1.769531 C 1.683594 -1.753906 0.699219 -1.453125 0.5625 -0.816406 C 0.5 -0.503906 0.570312 0.078125 1.199219 0.078125 C 1.300781 0.078125 1.980469 0.0664062 2.46875 -0.261719 L 2.414062 0 Z M 2.59375 -0.953125 C 2.5625 -0.816406 2.527344 -0.636719 2.253906 -0.5 C 2.015625 -0.367188 1.742188 -0.359375 1.660156 -0.359375 C 1.316406 -0.359375 1.027344 -0.527344 1.082031 -0.832031 C 1.191406 -1.335938 2.375 -1.386719 2.6875 -1.402344 Z "/>
</g>
<g id="glyph-0-3">
<path d="M 1.125 0 L 1.804688 -3.207031 L 1.265625 -3.207031 L 0.585938 0 Z M 2.050781 -4.089844 L 2.1875 -4.730469 L 1.546875 -4.730469 L 1.410156 -4.089844 Z "/>
</g>
<g id="glyph-0-4">
<path d="M 2.796875 -0.925781 C 2.882812 -1.320312 2.664062 -1.566406 2.65625 -1.589844 C 2.425781 -1.839844 2.238281 -1.886719 1.890625 -1.949219 C 1.515625 -2.03125 1.199219 -2.101562 1.269531 -2.457031 C 1.363281 -2.902344 1.886719 -2.902344 1.980469 -2.902344 C 2.210938 -2.902344 2.59375 -2.875 2.945312 -2.628906 L 3.132812 -3.097656 C 2.796875 -3.273438 2.511719 -3.328125 2.144531 -3.328125 C 1.964844 -3.328125 0.945312 -3.328125 0.742188 -2.382812 C 0.671875 -2.03125 0.832031 -1.796875 0.980469 -1.660156 C 1.171875 -1.503906 1.320312 -1.472656 1.703125 -1.394531 C 1.957031 -1.34375 2.355469 -1.257812 2.273438 -0.875 C 2.167969 -0.375 1.597656 -0.375 1.488281 -0.375 C 0.902344 -0.375 0.554688 -0.644531 0.441406 -0.730469 L 0.253906 -0.238281 C 0.460938 -0.121094 0.816406 0.078125 1.402344 0.078125 C 1.53125 0.078125 1.929688 0.078125 2.28125 -0.152344 C 2.550781 -0.324219 2.730469 -0.613281 2.796875 -0.925781 Z "/>
</g>
<g id="glyph-0-5">
<path d="M 2.953125 -2.800781 L 3.0625 -3.285156 C 2.414062 -3.277344 1.941406 -2.925781 1.648438 -2.59375 L 1.792969 -3.25 L 1.285156 -3.25 L 0.59375 0 L 1.132812 0 L 1.457031 -1.546875 C 1.617188 -2.269531 2.246094 -2.789062 2.953125 -2.800781 Z "/>
</g>
<g id="glyph-0-6">
<path d="M 2.953125 0 L 3.394531 -2.085938 C 3.554688 -2.824219 3.132812 -3.328125 2.46875 -3.328125 C 2 -3.328125 1.652344 -3.214844 1.269531 -3.019531 L 1.214844 -2.542969 C 1.648438 -2.808594 2.023438 -2.902344 2.375 -2.902344 C 2.714844 -2.902344 2.945312 -2.613281 2.832031 -2.082031 L 2.765625 -1.769531 C 1.683594 -1.753906 0.699219 -1.453125 0.5625 -0.816406 C 0.5 -0.503906 0.570312 0.078125 1.199219 0.078125 C 1.300781 0.078125 1.980469 0.0664062 2.46875 -0.261719 L 2.414062 0 Z M 2.59375 -0.953125 C 2.5625 -0.816406 2.527344 -0.636719 2.253906 -0.5 C 2.015625 -0.367188 1.742188 -0.359375 1.660156 -0.359375 C 1.316406 -0.359375 1.027344 -0.527344 1.082031 -0.832031 C 1.191406 -1.335938 2.375 -1.386719 2.6875 -1.402344 Z M 3.820312 -5.011719 L 3.257812 -5.011719 L 2.035156 -3.804688 L 2.476562 -3.804688 Z "/>
</g>
<g id="glyph-0-7">
<path d="M 3.804688 -1.609375 C 3.992188 -2.476562 3.710938 -3.285156 3.019531 -3.285156 C 2.585938 -3.285156 2.128906 -3.132812 1.742188 -2.851562 L 1.8125 -3.207031 L 1.269531 -3.207031 L 0.296875 1.402344 L 0.859375 1.402344 L 1.226562 -0.332031 C 1.410156 -0.121094 1.683594 0.078125 2.117188 0.078125 C 2.816406 0.078125 3.597656 -0.628906 3.804688 -1.609375 Z M 3.242188 -1.609375 C 3.089844 -0.867188 2.46875 -0.359375 1.929688 -0.359375 C 1.648438 -0.359375 1.480469 -0.503906 1.378906 -0.699219 C 1.328125 -0.808594 1.328125 -0.824219 1.359375 -0.953125 L 1.667969 -2.40625 C 1.890625 -2.65625 2.210938 -2.824219 2.519531 -2.824219 C 3.070312 -2.824219 3.386719 -2.273438 3.242188 -1.609375 Z "/>
</g>
<g id="glyph-0-8">
<path d="M 3.132812 0 L 4.203125 -5.011719 L 3.660156 -5.011719 L 3.207031 -2.890625 C 2.890625 -3.207031 2.507812 -3.285156 2.238281 -3.285156 C 1.523438 -3.285156 0.800781 -2.535156 0.597656 -1.601562 C 0.398438 -0.65625 0.800781 0.078125 1.488281 0.078125 C 1.726562 0.078125 2.167969 0.015625 2.652344 -0.375 L 2.570312 0 Z M 2.789062 -1.003906 C 2.765625 -0.902344 2.730469 -0.773438 2.457031 -0.5625 C 2.253906 -0.417969 2.066406 -0.359375 1.878906 -0.359375 C 1.429688 -0.359375 0.976562 -0.699219 1.164062 -1.597656 C 1.363281 -2.550781 2.050781 -2.847656 2.476562 -2.847656 C 2.800781 -2.847656 2.984375 -2.679688 3.089844 -2.449219 Z "/>
</g>
<g id="glyph-0-9">
<path d="M 3.726562 -1.589844 C 3.929688 -2.558594 3.371094 -3.328125 2.511719 -3.328125 C 1.625 -3.328125 0.757812 -2.535156 0.554688 -1.589844 C 0.355469 -0.636719 0.9375 0.078125 1.785156 0.078125 C 2.652344 0.078125 3.523438 -0.648438 3.726562 -1.589844 Z M 3.179688 -1.660156 C 2.996094 -0.808594 2.414062 -0.382812 1.878906 -0.382812 C 1.378906 -0.382812 0.945312 -0.789062 1.132812 -1.660156 C 1.320312 -2.535156 1.941406 -2.890625 2.414062 -2.890625 C 2.917969 -2.890625 3.359375 -2.511719 3.179688 -1.660156 Z "/>
</g>
<g id="glyph-0-10">
<path d="M 3.328125 -1.582031 C 3.378906 -1.828125 3.488281 -2.367188 3.292969 -2.800781 C 3.097656 -3.25 2.671875 -3.328125 2.414062 -3.328125 C 1.609375 -3.328125 0.792969 -2.5625 0.597656 -1.632812 C 0.398438 -0.679688 0.933594 0.078125 1.796875 0.078125 C 2.253906 0.078125 2.703125 -0.09375 3.027344 -0.296875 L 3.085938 -0.765625 C 2.542969 -0.390625 2.066406 -0.359375 1.898438 -0.359375 C 1.320312 -0.359375 0.96875 -0.875 1.097656 -1.582031 Z M 2.996094 -1.980469 L 1.214844 -1.980469 C 1.445312 -2.527344 1.90625 -2.890625 2.320312 -2.890625 C 2.695312 -2.890625 3.046875 -2.644531 2.996094 -1.980469 Z "/>
</g>
<g id="glyph-0-11">
<path d="M 3.46875 -4.527344 L 3.574219 -5.011719 C 3.488281 -5.035156 3.277344 -5.09375 3.011719 -5.09375 C 2.332031 -5.09375 1.703125 -4.578125 1.554688 -3.855469 L 1.410156 -3.207031 L 0.875 -3.207031 L 0.789062 -2.789062 L 1.320312 -2.789062 L 0.730469 0 L 1.269531 0 L 1.863281 -2.789062 L 2.65625 -2.789062 L 2.746094 -3.207031 L 1.929688 -3.207031 L 2.117188 -4.066406 C 2.222656 -4.601562 2.722656 -4.652344 2.910156 -4.652344 C 3.054688 -4.652344 3.242188 -4.636719 3.46875 -4.527344 Z "/>
</g>
<g id="glyph-0-12">
<path d="M 1.941406 -3.105469 L 2.382812 -5.171875 L 1.820312 -5.171875 L 1.378906 -3.105469 Z M 3.070312 -3.105469 L 3.511719 -5.171875 L 2.945312 -5.171875 L 2.507812 -3.105469 Z "/>
</g>
</g>
<image id="source-171" x="0" y="0" width="0" height="0"/>
<mask id="mask-0">
<use xlink:href="#source-171"/>
</mask>
</defs>
<g fill="rgb(96.078431%, 51.372549%, 12.156863%)" fill-opacity="1">
<use xlink:href="#glyph-0-0" x="30" y="28.334961"/>
<use xlink:href="#glyph-0-1" x="32" y="28.334961"/>
<use xlink:href="#glyph-0-2" x="38" y="28.334961"/>
<use xlink:href="#glyph-0-3" x="41" y="28.334961"/>
<use xlink:href="#glyph-0-4" x="43" y="28.334961"/>
<use xlink:href="#glyph-0-0" x="46" y="28.334961"/>
<use xlink:href="#glyph-0-5" x="48" y="28.334961"/>
<use xlink:href="#glyph-0-6" x="50" y="28.334961"/>
<use xlink:href="#glyph-0-7" x="53" y="28.334961"/>
<use xlink:href="#glyph-0-3" x="57" y="28.334961"/>
<use xlink:href="#glyph-0-8" x="59" y="28.334961"/>
<use xlink:href="#glyph-0-9" x="63" y="28.334961"/>
<use xlink:href="#glyph-0-0" x="67" y="28.334961"/>
<use xlink:href="#glyph-0-10" x="69" y="28.334961"/>
<use xlink:href="#glyph-0-4" x="72" y="28.334961"/>
<use xlink:href="#glyph-0-11" x="75" y="28.334961"/>
<use xlink:href="#glyph-0-5" x="77" y="28.334961"/>
<use xlink:href="#glyph-0-3" x="79" y="28.334961"/>
<use xlink:href="#glyph-0-2" x="81" y="28.334961"/>
<use xlink:href="#glyph-0-12" x="84" y="28.334961"/>
</g>
</svg>
