<?xml version="1.0" encoding="UTF-8"?>
<svg xmlns="http://www.w3.org/2000/svg" xmlns:xlink="http://www.w3.org/1999/xlink" width="1920" height="1080" viewBox="0 0 1920 1080">
<defs>
<g>
<g id="glyph-0-0">
<path d="M 1.238281 1.109375 C 1.070312 0.898438 0.625 0.324219 0.933594 -1.109375 C 0.988281 -1.359375 1.109375 -1.878906 1.40625 -2.40625 C 1.699219 -2.921875 2.003906 -3.1875 2.183594 -3.332031 L 1.910156 -3.332031 C 1.742188 -3.199219 1.386719 -2.929688 1.066406 -2.382812 C 0.785156 -1.90625 0.65625 -1.433594 0.585938 -1.109375 C 0.28125 0.324219 0.796875 0.914062 0.96875 1.109375 Z "/>
</g>
<g id="glyph-0-1">
<path d="M 3.441406 0 L 4.097656 -3.085938 L 3.589844 -3.085938 L 2.6875 -1.578125 C 2.449219 -1.171875 2.125 -0.621094 2.03125 -0.414062 L 2.027344 -0.414062 C 2.023438 -0.507812 2.003906 -0.671875 1.976562 -0.859375 L 1.671875 -2.699219 L 1.605469 -3.085938 L 1.101562 -3.085938 L 0.445312 0 L 0.792969 0 L 1.378906 -2.753906 L 1.382812 -2.753906 C 1.378906 -2.613281 1.453125 -2.128906 1.503906 -1.828125 L 1.796875 -0.0976562 L 2.121094 -0.0976562 L 3.039062 -1.644531 L 3.375 -2.207031 C 3.445312 -2.335938 3.632812 -2.65625 3.675781 -2.761719 L 3.679688 -2.753906 L 3.09375 0 Z "/>
</g>
<g id="glyph-0-2">
<path d="M 1.816406 0 L 2.089844 -1.285156 C 2.1875 -1.738281 1.929688 -2.050781 1.519531 -2.050781 C 1.230469 -2.050781 1.019531 -1.976562 0.78125 -1.859375 L 0.746094 -1.5625 C 1.011719 -1.730469 1.246094 -1.785156 1.460938 -1.785156 C 1.671875 -1.785156 1.8125 -1.609375 1.742188 -1.28125 L 1.703125 -1.089844 C 1.035156 -1.078125 0.429688 -0.894531 0.347656 -0.503906 C 0.308594 -0.3125 0.351562 0.0507812 0.738281 0.0507812 C 0.800781 0.0507812 1.21875 0.0390625 1.519531 -0.160156 L 1.484375 0 Z M 1.59375 -0.585938 C 1.578125 -0.503906 1.554688 -0.390625 1.386719 -0.308594 C 1.238281 -0.226562 1.070312 -0.222656 1.023438 -0.222656 C 0.808594 -0.222656 0.632812 -0.324219 0.667969 -0.511719 C 0.734375 -0.820312 1.460938 -0.851562 1.652344 -0.863281 Z "/>
</g>
<g id="glyph-0-3">
<path d="M 0.691406 0 L 1.351562 -3.085938 L 1.019531 -3.085938 L 0.359375 0 Z "/>
</g>
<g id="glyph-0-4">
<path d="M 1.503906 -0.121094 L 1.484375 -0.382812 C 1.351562 -0.289062 1.195312 -0.234375 1.054688 -0.234375 C 0.890625 -0.234375 0.859375 -0.367188 0.90625 -0.605469 L 1.140625 -1.714844 L 1.769531 -1.714844 L 1.820312 -1.972656 L 1.195312 -1.972656 L 1.316406 -2.539062 L 1.007812 -2.539062 L 0.890625 -1.972656 L 0.503906 -1.972656 L 0.449219 -1.714844 L 0.820312 -1.714844 L 0.570312 -0.527344 C 0.515625 -0.261719 0.511719 0.0507812 0.816406 0.0507812 C 1.128906 0.0507812 1.378906 -0.0625 1.503906 -0.121094 Z "/>
</g>
<g id="glyph-0-5">
<path d="M 1.933594 0 L 2.214844 -1.324219 C 2.277344 -1.617188 2.296875 -2.023438 1.753906 -2.023438 C 1.480469 -2.023438 1.234375 -1.882812 1.054688 -1.703125 L 1.351562 -3.085938 L 1.019531 -3.085938 L 0.359375 0 L 0.707031 0 L 0.9375 -1.089844 C 1 -1.382812 1.191406 -1.75 1.527344 -1.75 C 1.957031 -1.75 1.894531 -1.433594 1.863281 -1.292969 L 1.585938 0 Z "/>
</g>
<g id="glyph-0-6">
<path d="M 1.933594 0 L 2.351562 -1.972656 L 2.003906 -1.972656 L 1.734375 -0.683594 C 1.664062 -0.351562 1.378906 -0.195312 1.09375 -0.195312 C 0.777344 -0.195312 0.773438 -0.3125 0.8125 -0.503906 L 1.125 -1.972656 L 0.777344 -1.972656 L 0.460938 -0.484375 C 0.394531 -0.164062 0.453125 0.0507812 0.820312 0.0507812 C 1.058594 0.0507812 1.386719 -0.0234375 1.644531 -0.214844 L 1.601562 0 Z "/>
</g>
<g id="glyph-0-7">
<path d="M 1.71875 -0.570312 C 1.773438 -0.8125 1.640625 -0.964844 1.636719 -0.976562 C 1.492188 -1.132812 1.378906 -1.160156 1.164062 -1.199219 C 0.933594 -1.25 0.738281 -1.292969 0.78125 -1.511719 C 0.839844 -1.785156 1.160156 -1.785156 1.21875 -1.785156 C 1.359375 -1.785156 1.59375 -1.769531 1.8125 -1.617188 L 1.929688 -1.90625 C 1.71875 -2.011719 1.546875 -2.050781 1.320312 -2.050781 C 1.207031 -2.050781 0.582031 -2.050781 0.457031 -1.464844 C 0.414062 -1.25 0.511719 -1.105469 0.605469 -1.023438 C 0.71875 -0.925781 0.8125 -0.90625 1.050781 -0.859375 C 1.203125 -0.828125 1.449219 -0.773438 1.398438 -0.539062 C 1.332031 -0.230469 0.980469 -0.230469 0.914062 -0.230469 C 0.554688 -0.230469 0.34375 -0.394531 0.269531 -0.449219 L 0.15625 -0.148438 C 0.285156 -0.0742188 0.503906 0.0507812 0.863281 0.0507812 C 0.941406 0.0507812 1.1875 0.0507812 1.40625 -0.09375 C 1.570312 -0.199219 1.679688 -0.378906 1.71875 -0.570312 Z "/>
</g>
<g id="glyph-0-8">
<path d="M 0.800781 -0.00390625 L 0.878906 -0.367188 L 0.511719 -0.367188 L 0.429688 0 L 0.542969 0 L 0.3125 0.554688 L 0.492188 0.554688 Z "/>
</g>
<g id="glyph-0-9">
<rect x="0" y="0" width="0" height="0" mask="url(#mask-0)"/>
</g>
<g id="glyph-0-10">
<path d="M 1.882812 0 L 1.9375 -0.257812 L 1.382812 -0.257812 L 1.96875 -3.011719 L 1.878906 -3.011719 C 1.558594 -2.742188 1.191406 -2.730469 0.972656 -2.71875 L 0.921875 -2.460938 C 1.066406 -2.464844 1.28125 -2.476562 1.523438 -2.570312 L 1.03125 -0.257812 L 0.476562 -0.257812 L 0.421875 0 Z "/>
</g>
<g id="glyph-0-11">
<path d="M 2.589844 -2.625 L 2.648438 -2.914062 L 0.804688 -2.914062 L 0.738281 -2.601562 L 1.582031 -2.601562 C 1.636719 -2.601562 1.691406 -2.605469 1.746094 -2.605469 L 2.285156 -2.605469 C 1.472656 -1.878906 0.882812 -0.992188 0.667969 0.0507812 L 1.039062 0.0507812 C 1.320312 -1.285156 2.160156 -2.234375 2.589844 -2.625 Z "/>
</g>
<g id="glyph-0-12">
<path d="M 2.347656 -1.488281 C 2.613281 -2.734375 2.140625 -3.011719 1.765625 -3.011719 C 1.453125 -3.011719 1.246094 -2.878906 1.054688 -2.714844 C 0.707031 -2.414062 0.636719 -2.121094 0.59375 -1.929688 C 0.476562 -1.359375 0.664062 -0.863281 1.089844 -0.863281 C 1.363281 -0.863281 1.675781 -0.992188 1.921875 -1.230469 C 1.71875 -0.515625 1.300781 -0.171875 0.949219 -0.171875 C 0.800781 -0.171875 0.664062 -0.207031 0.527344 -0.34375 L 0.34375 -0.105469 C 0.472656 0.00390625 0.613281 0.0976562 0.890625 0.0976562 C 1.472656 0.0976562 2.140625 -0.519531 2.347656 -1.488281 Z M 2.035156 -1.828125 C 1.960938 -1.460938 1.671875 -1.132812 1.320312 -1.132812 C 1.109375 -1.132812 1.007812 -1.234375 0.949219 -1.398438 C 0.890625 -1.574219 0.921875 -1.738281 0.960938 -1.929688 C 1.003906 -2.125 1.042969 -2.304688 1.214844 -2.503906 C 1.328125 -2.632812 1.480469 -2.753906 1.710938 -2.753906 C 2.148438 -2.753906 2.09375 -2.152344 2.054688 -1.933594 C 2.054688 -1.902344 2.042969 -1.859375 2.035156 -1.828125 Z "/>
</g>
<g id="glyph-0-13">
<path d="M 2.199219 -0.800781 C 2.289062 -1.203125 2.035156 -1.476562 1.753906 -1.578125 C 2.183594 -1.707031 2.394531 -2 2.445312 -2.234375 C 2.535156 -2.652344 2.230469 -3.011719 1.75 -3.011719 C 1.253906 -3.011719 0.808594 -2.644531 0.722656 -2.234375 C 0.675781 -2 0.765625 -1.707031 1.128906 -1.578125 C 0.785156 -1.464844 0.441406 -1.1875 0.355469 -0.800781 C 0.253906 -0.316406 0.574219 0.0976562 1.085938 0.0976562 C 1.613281 0.0976562 2.101562 -0.328125 2.199219 -0.800781 Z M 2.132812 -2.234375 C 2.066406 -1.914062 1.796875 -1.710938 1.476562 -1.710938 C 1.132812 -1.710938 0.96875 -1.929688 1.035156 -2.234375 C 1.101562 -2.542969 1.363281 -2.753906 1.691406 -2.753906 C 2.042969 -2.753906 2.195312 -2.523438 2.132812 -2.234375 Z M 1.839844 -0.804688 C 1.75 -0.375 1.429688 -0.171875 1.148438 -0.171875 C 0.839844 -0.171875 0.625 -0.386719 0.714844 -0.804688 C 0.816406 -1.269531 1.171875 -1.441406 1.414062 -1.441406 C 1.671875 -1.441406 1.9375 -1.261719 1.839844 -0.804688 Z "/>
</g>
<g id="glyph-0-14">
<path d="M 1.609375 -1.109375 C 1.914062 -2.546875 1.398438 -3.136719 1.226562 -3.332031 L 0.957031 -3.332031 C 1.125 -3.121094 1.570312 -2.546875 1.261719 -1.109375 C 1.207031 -0.863281 1.085938 -0.34375 0.792969 0.183594 C 0.503906 0.699219 0.191406 0.964844 0.0117188 1.109375 L 0.285156 1.109375 C 0.453125 0.976562 0.808594 0.707031 1.128906 0.160156 C 1.410156 -0.316406 1.542969 -0.785156 1.609375 -1.109375 Z "/>
</g>
</g>
<image id="source-255" x="0" y="0" width="0" height="0"/>
<mask id="mask-0">
<use xlink:href="#source-255"/>
</mask>
</defs>
<g fill="rgb(36.078431%, 56.078431%, 70.980392%)" fill-opacity="1">
<use xlink:href="#glyph-0-0" x="30" y="25.128906"/>
<use xlink:href="#glyph-0-1" x="32" y="25.128906"/>
<use xlink:href="#glyph-0-2" x="36" y="25.128906"/>
<use xlink:href="#glyph-0-3" x="38" y="25.128906"/>
<use xlink:href="#glyph-0-4" x="39" y="25.128906"/>
<use xlink:href="#glyph-0-5" x="41" y="25.128906"/>
<use xlink:href="#glyph-0-6" x="43" y="25.128906"/>
<use xlink:href="#glyph-0-7" x="45" y="25.128906"/>
<use xlink:href="#glyph-0-8" x="47" y="25.128906"/>
<use xlink:href="#glyph-0-9" x="48" y="25.128906"/>
<use xlink:href="#glyph-0-10" x="49" y="25.128906"/>
<use xlink:href="#glyph-0-11" x="51" y="25.128906"/>
<use xlink:href="#glyph-0-12" x="53" y="25.128906"/>
<use xlink:href="#glyph-0-13" x="55" y="25.128906"/>
<use xlink:href="#glyph-0-14" x="57" y="25.128906"/>
</g>
</svg>
