<?xml version="1.0" encoding="UTF-8"?>
<svg xmlns="http://www.w3.org/2000/svg" xmlns:xlink="http://www.w3.org/1999/xlink" width="1920" height="1080" viewBox="0 0 1920 1080">
<defs>
<g>
<g id="glyph-0-0">
<path d="M 3.386719 0 L 3.386719 -0.433594 L 2.613281 -0.433594 C 2.542969 -0.433594 2.46875 -0.425781 2.394531 -0.425781 L 1.117188 -0.425781 L 1.117188 -2.011719 L 3.132812 -2.011719 L 3.132812 -2.382812 L 1.117188 -2.382812 L 1.117188 -3.832031 L 1.960938 -3.832031 C 2.035156 -3.832031 2.109375 -3.824219 2.179688 -3.824219 L 3.300781 -3.824219 L 3.300781 -4.222656 L 0.574219 -4.222656 L 0.574219 0 Z "/>
</g>
<g id="glyph-0-1">
<path d="M 4.0625 -2.082031 C 4.0625 -3.269531 3.238281 -4.242188 2.1875 -4.242188 L 0.585938 -4.242188 L 0.585938 0 L 2.195312 0 C 3.230469 0 4.0625 -0.929688 4.0625 -2.082031 Z M 3.539062 -2.082031 C 3.539062 -1.042969 2.902344 -0.34375 2.046875 -0.34375 L 1.113281 -0.34375 L 1.113281 -3.898438 L 2.046875 -3.898438 C 2.902344 -3.898438 3.539062 -3.160156 3.539062 -2.082031 Z "/>
</g>
<g id="glyph-0-2">
<path d="M 4.148438 -2.109375 C 4.148438 -3.390625 3.261719 -4.375 2.25 -4.375 C 1.210938 -4.375 0.34375 -3.378906 0.34375 -2.109375 C 0.34375 -0.8125 1.246094 0.132812 2.242188 0.132812 C 3.261719 0.132812 4.148438 -0.824219 4.148438 -2.109375 Z M 3.605469 -2.199219 C 3.605469 -1.007812 2.945312 -0.261719 2.25 -0.261719 C 1.527344 -0.261719 0.886719 -1.027344 0.886719 -2.199219 C 0.886719 -3.316406 1.558594 -3.984375 2.242188 -3.984375 C 2.953125 -3.984375 3.605469 -3.292969 3.605469 -2.199219 Z "/>
</g>
<g id="glyph-0-3">
<rect x="0" y="0" width="0" height="0" mask="url(#mask-0)"/>
</g>
<g id="glyph-0-4">
<path d="M 2.707031 -4.460938 C 2.707031 -4.527344 2.652344 -4.582031 2.585938 -4.582031 C 2.5 -4.582031 2.476562 -4.523438 2.457031 -4.460938 L 0.371094 1.296875 C 0.34375 1.375 0.34375 1.40625 0.34375 1.40625 C 0.34375 1.472656 0.398438 1.527344 0.464844 1.527344 C 0.550781 1.527344 0.574219 1.464844 0.59375 1.40625 L 2.675781 -4.351562 C 2.707031 -4.429688 2.707031 -4.460938 2.707031 -4.460938 Z "/>
</g>
<g id="glyph-0-5">
<path d="M 3.554688 -3.007812 C 3.554688 -3.660156 2.953125 -4.242188 2.109375 -4.242188 L 0.585938 -4.242188 L 0.585938 0 L 1.128906 0 L 1.128906 -1.765625 L 2.152344 -1.765625 C 2.910156 -1.765625 3.554688 -2.320312 3.554688 -3.007812 Z M 3.0625 -3.007812 C 3.0625 -2.523438 2.675781 -2.121094 1.972656 -2.121094 L 1.113281 -2.121094 L 1.113281 -3.898438 L 1.972656 -3.898438 C 2.644531 -3.898438 3.0625 -3.527344 3.0625 -3.007812 Z "/>
</g>
<g id="glyph-0-6">
<path d="M 1.101562 -0.0078125 L 1.101562 -0.507812 L 0.59375 -0.507812 L 0.59375 0 L 0.746094 0 L 0.59375 0.765625 L 0.84375 0.765625 Z "/>
</g>
<g id="glyph-0-7">
<path d="M 2.867188 -1.34375 C 2.867188 -2.164062 2.253906 -2.816406 1.527344 -2.816406 C 0.777344 -2.816406 0.183594 -2.144531 0.183594 -1.34375 C 0.183594 -0.539062 0.804688 0.0664062 1.519531 0.0664062 C 2.253906 0.0664062 2.867188 -0.550781 2.867188 -1.34375 Z M 2.390625 -1.40625 C 2.390625 -0.683594 1.972656 -0.324219 1.519531 -0.324219 C 1.101562 -0.324219 0.660156 -0.667969 0.660156 -1.40625 C 0.660156 -2.144531 1.125 -2.445312 1.519531 -2.445312 C 1.949219 -2.445312 2.390625 -2.125 2.390625 -1.40625 Z "/>
</g>
<g id="glyph-0-8">
<path d="M 2 -2.371094 L 2 -2.78125 C 1.453125 -2.773438 1.117188 -2.476562 0.929688 -2.195312 L 0.929688 -2.75 L 0.5 -2.75 L 0.5 0 L 0.960938 0 L 0.960938 -1.308594 C 0.960938 -1.917969 1.398438 -2.359375 2 -2.371094 Z "/>
</g>
<g id="glyph-0-9">
<path d="M 2.652344 0 L 2.652344 -4.242188 L 2.195312 -4.242188 L 2.195312 -2.445312 C 1.871094 -2.714844 1.527344 -2.78125 1.300781 -2.78125 C 0.695312 -2.78125 0.21875 -2.144531 0.21875 -1.355469 C 0.21875 -0.554688 0.691406 0.0664062 1.269531 0.0664062 C 1.472656 0.0664062 1.832031 0.0117188 2.175781 -0.316406 L 2.175781 0 Z M 2.175781 -0.847656 C 2.175781 -0.765625 2.167969 -0.652344 1.972656 -0.476562 C 1.832031 -0.355469 1.679688 -0.304688 1.519531 -0.304688 C 1.144531 -0.304688 0.695312 -0.59375 0.695312 -1.351562 C 0.695312 -2.15625 1.222656 -2.40625 1.582031 -2.40625 C 1.859375 -2.40625 2.039062 -2.265625 2.175781 -2.070312 Z "/>
</g>
<g id="glyph-0-10">
<path d="M 2.53125 -1.339844 C 2.53125 -1.546875 2.523438 -2.003906 2.285156 -2.371094 C 2.035156 -2.75 1.660156 -2.816406 1.441406 -2.816406 C 0.765625 -2.816406 0.214844 -2.167969 0.214844 -1.382812 C 0.214844 -0.574219 0.800781 0.0664062 1.535156 0.0664062 C 1.917969 0.0664062 2.265625 -0.078125 2.503906 -0.25 L 2.46875 -0.648438 C 2.082031 -0.328125 1.679688 -0.304688 1.539062 -0.304688 C 1.050781 -0.304688 0.660156 -0.738281 0.640625 -1.339844 Z M 2.179688 -1.675781 L 0.671875 -1.675781 C 0.769531 -2.136719 1.09375 -2.445312 1.441406 -2.445312 C 1.761719 -2.445312 2.101562 -2.238281 2.179688 -1.675781 Z "/>
</g>
<g id="glyph-0-11">
<path d="M 4.355469 0 L 4.355469 -1.820312 C 4.355469 -2.230469 4.257812 -2.78125 3.519531 -2.78125 C 3.152344 -2.78125 2.835938 -2.609375 2.609375 -2.277344 C 2.449219 -2.742188 2.023438 -2.78125 1.828125 -2.78125 C 1.386719 -2.78125 1.101562 -2.53125 0.933594 -2.308594 L 0.933594 -2.75 L 0.496094 -2.75 L 0.496094 0 L 0.972656 0 L 0.972656 -1.496094 C 0.972656 -1.914062 1.136719 -2.40625 1.589844 -2.40625 C 2.15625 -2.40625 2.1875 -2.011719 2.1875 -1.777344 L 2.1875 0 L 2.664062 0 L 2.664062 -1.496094 C 2.664062 -1.914062 2.828125 -2.40625 3.28125 -2.40625 C 3.847656 -2.40625 3.878906 -2.011719 3.878906 -1.777344 L 3.878906 0 Z "/>
</g>
<g id="glyph-0-12">
<path d="M 0.953125 0 L 0.953125 -4.242188 L 0.496094 -4.242188 L 0.496094 0 Z "/>
</g>
<g id="glyph-0-13">
<path d="M 0.953125 0 L 0.953125 -2.714844 L 0.496094 -2.714844 L 0.496094 0 Z M 1.003906 -3.457031 L 1.003906 -4.003906 L 0.457031 -4.003906 L 0.457031 -3.457031 Z "/>
</g>
<g id="glyph-0-14">
<path d="M 2.65625 0 L 2.65625 -1.820312 C 2.65625 -2.222656 2.566406 -2.78125 1.820312 -2.78125 C 1.269531 -2.78125 0.972656 -2.363281 0.933594 -2.316406 L 0.933594 -2.75 L 0.496094 -2.75 L 0.496094 0 L 0.972656 0 L 0.972656 -1.496094 C 0.972656 -1.898438 1.125 -2.40625 1.589844 -2.40625 C 2.175781 -2.40625 2.179688 -1.972656 2.179688 -1.777344 L 2.179688 0 Z "/>
</g>
<g id="glyph-0-15">
<path d="M 2.5 0 L 2.5 -1.765625 C 2.5 -2.390625 2.054688 -2.816406 1.492188 -2.816406 C 1.09375 -2.816406 0.820312 -2.71875 0.53125 -2.554688 L 0.566406 -2.152344 C 0.886719 -2.375 1.191406 -2.457031 1.492188 -2.457031 C 1.777344 -2.457031 2.023438 -2.210938 2.023438 -1.761719 L 2.023438 -1.496094 C 1.105469 -1.484375 0.328125 -1.226562 0.328125 -0.691406 C 0.328125 -0.425781 0.496094 0.0664062 1.027344 0.0664062 C 1.113281 0.0664062 1.6875 0.0546875 2.039062 -0.21875 L 2.039062 0 Z M 2.023438 -0.804688 C 2.023438 -0.691406 2.023438 -0.539062 1.816406 -0.421875 C 1.636719 -0.3125 1.40625 -0.304688 1.339844 -0.304688 C 1.042969 -0.304688 0.769531 -0.445312 0.769531 -0.703125 C 0.769531 -1.128906 1.761719 -1.171875 2.023438 -1.183594 Z "/>
</g>
</g>
<image id="source-112" x="0" y="0" width="0" height="0"/>
<mask id="mask-0">
<use xlink:href="#source-112"/>
</mask>
</defs>
<g fill="rgb(72.156863%, 83.137255%, 92.54902%)" fill-opacity="1">
<use xlink:href="#glyph-0-0" x="30" y="27.051758"/>
<use xlink:href="#glyph-0-1" x="34" y="27.051758"/>
<use xlink:href="#glyph-0-2" x="38" y="27.051758"/>
<use xlink:href="#glyph-0-3" x="42" y="27.051758"/>
<use xlink:href="#glyph-0-4" x="44" y="27.051758"/>
<use xlink:href="#glyph-0-3" x="47" y="27.051758"/>
<use xlink:href="#glyph-0-0" x="49" y="27.051758"/>
<use xlink:href="#glyph-0-1" x="53" y="27.051758"/>
<use xlink:href="#glyph-0-5" x="57" y="27.051758"/>
<use xlink:href="#glyph-0-6" x="60" y="27.051758"/>
<use xlink:href="#glyph-0-3" x="62" y="27.051758"/>
<use xlink:href="#glyph-0-7" x="64" y="27.051758"/>
<use xlink:href="#glyph-0-8" x="67" y="27.051758"/>
<use xlink:href="#glyph-0-9" x="69" y="27.051758"/>
<use xlink:href="#glyph-0-10" x="72" y="27.051758"/>
<use xlink:href="#glyph-0-11" x="75" y="27.051758"/>
<use xlink:href="#glyph-0-6" x="80" y="27.051758"/>
<use xlink:href="#glyph-0-3" x="82" y="27.051758"/>
<use xlink:href="#glyph-0-12" x="84" y="27.051758"/>
<use xlink:href="#glyph-0-13" x="85" y="27.051758"/>
<use xlink:href="#glyph-0-14" x="86" y="27.051758"/>
<use xlink:href="#glyph-0-10" x="89" y="27.051758"/>
<use xlink:href="#glyph-0-15" x="92" y="27.051758"/>
<use xlink:href="#glyph-0-8" x="95" y="27.051758"/>
<use xlink:href="#glyph-0-13" x="97" y="27.051758"/>
<use xlink:href="#glyph-0-9" x="98" y="27.051758"/>
<use xlink:href="#glyph-0-15" x="101" y="27.051758"/>
<use xlink:href="#glyph-0-9" x="104" y="27.051758"/>
<use xlink:href="#glyph-0-10" x="107" y="27.051758"/>
</g>
</svg>
