<?xml version="1.0" encoding="UTF-8"?>
<svg xmlns="http://www.w3.org/2000/svg" xmlns:xlink="http://www.w3.org/1999/xlink" width="1920" height="1080" viewBox="0 0 1920 1080">
<defs>
<g>
<g id="glyph-0-0">
<path d="M 3.050781 -1.109375 C 3.050781 -1.734375 2.589844 -2.199219 2.035156 -2.328125 L 1.5 -2.449219 C 1.378906 -2.476562 1.035156 -2.605469 1.035156 -2.921875 C 1.035156 -3.394531 1.503906 -3.40625 1.695312 -3.40625 C 2.003906 -3.40625 2.285156 -3.332031 2.554688 -3.066406 C 2.644531 -2.984375 2.648438 -2.976562 2.671875 -2.976562 C 2.707031 -2.976562 2.734375 -2.996094 2.75 -3.078125 L 2.832031 -3.5625 C 2.84375 -3.605469 2.84375 -3.617188 2.84375 -3.632812 C 2.84375 -3.679688 2.839844 -3.683594 2.699219 -3.753906 C 2.304688 -3.949219 1.976562 -3.976562 1.695312 -3.976562 C 1.199219 -3.976562 0.339844 -3.859375 0.339844 -2.824219 C 0.339844 -2.429688 0.542969 -2.171875 0.648438 -2.0625 C 0.933594 -1.773438 1.195312 -1.714844 1.628906 -1.617188 C 1.9375 -1.542969 2.0625 -1.515625 2.183594 -1.40625 C 2.238281 -1.351562 2.355469 -1.234375 2.355469 -1.023438 C 2.355469 -0.5 1.878906 -0.484375 1.695312 -0.484375 C 1.226562 -0.484375 0.820312 -0.671875 0.542969 -0.921875 C 0.476562 -0.988281 0.464844 -0.988281 0.445312 -0.988281 C 0.410156 -0.988281 0.382812 -0.972656 0.367188 -0.890625 L 0.285156 -0.40625 C 0.273438 -0.359375 0.273438 -0.351562 0.273438 -0.332031 C 0.273438 -0.214844 0.851562 -0.015625 0.878906 -0.00390625 C 1.25 0.109375 1.550781 0.121094 1.695312 0.121094 C 2.527344 0.121094 3.050781 -0.25 3.050781 -1.109375 Z "/>
</g>
<g id="glyph-0-1">
<path d="M 2.878906 -1.25 C 2.878906 -2.160156 2.433594 -2.640625 1.527344 -2.640625 C 0.601562 -2.640625 0.171875 -2.144531 0.171875 -1.25 C 0.171875 -0.34375 0.648438 0.0625 1.523438 0.0625 C 2.394531 0.0625 2.878906 -0.339844 2.878906 -1.25 Z M 2.121094 -1.316406 C 2.121094 -0.878906 2.121094 -0.371094 1.527344 -0.371094 C 0.929688 -0.371094 0.929688 -0.871094 0.929688 -1.316406 C 0.929688 -1.746094 0.929688 -2.238281 1.523438 -2.238281 C 2.121094 -2.238281 2.121094 -1.75 2.121094 -1.316406 Z "/>
</g>
<g id="glyph-0-2">
<path d="M 1.078125 -0.265625 L 1.078125 -3.589844 C 1.078125 -3.765625 1.039062 -3.855469 0.8125 -3.855469 L 0.605469 -3.855469 C 0.40625 -3.855469 0.339844 -3.792969 0.339844 -3.589844 L 0.339844 -0.265625 C 0.339844 -0.0664062 0.398438 0 0.605469 0 L 0.8125 0 C 1.023438 0 1.078125 -0.0703125 1.078125 -0.265625 Z "/>
</g>
<g id="glyph-0-3">
<path d="M 2.777344 -0.265625 L 2.777344 -2.277344 C 2.777344 -2.457031 2.738281 -2.542969 2.511719 -2.542969 L 2.289062 -2.542969 C 2.078125 -2.542969 2.023438 -2.472656 2.023438 -2.277344 L 2.023438 -0.960938 C 2.023438 -0.59375 1.828125 -0.277344 1.433594 -0.277344 C 1.121094 -0.277344 1.089844 -0.355469 1.089844 -0.648438 L 1.089844 -2.277344 C 1.089844 -2.457031 1.050781 -2.542969 0.820312 -2.542969 L 0.601562 -2.542969 C 0.398438 -2.542969 0.332031 -2.484375 0.332031 -2.277344 L 0.332031 -0.699219 C 0.332031 -0.105469 0.65625 0.0625 1.234375 0.0625 C 1.382812 0.0625 1.777344 0.0625 2.039062 -0.410156 L 2.039062 -0.265625 C 2.039062 -0.0898438 2.078125 0 2.304688 0 L 2.511719 0 C 2.722656 0 2.777344 -0.0703125 2.777344 -0.265625 Z "/>
</g>
<g id="glyph-0-4">
<path d="M 2.539062 -0.277344 C 2.539062 -0.339844 2.515625 -0.59375 2.503906 -0.667969 C 2.503906 -0.683594 2.496094 -0.738281 2.4375 -0.738281 C 2.417969 -0.738281 2.40625 -0.738281 2.351562 -0.683594 C 2.253906 -0.601562 1.996094 -0.371094 1.539062 -0.371094 C 0.960938 -0.371094 0.960938 -0.933594 0.960938 -1.289062 C 0.960938 -1.738281 0.988281 -2.207031 1.554688 -2.207031 C 1.917969 -2.207031 2.066406 -2.117188 2.265625 -1.949219 C 2.332031 -1.890625 2.34375 -1.890625 2.367188 -1.890625 C 2.421875 -1.890625 2.433594 -1.9375 2.4375 -1.960938 C 2.449219 -2.003906 2.503906 -2.316406 2.503906 -2.34375 C 2.503906 -2.394531 2.464844 -2.417969 2.371094 -2.460938 C 2.105469 -2.582031 1.9375 -2.640625 1.550781 -2.640625 C 0.722656 -2.640625 0.207031 -2.25 0.207031 -1.277344 C 0.207031 -0.355469 0.683594 0.0625 1.523438 0.0625 C 1.671875 0.0625 2.003906 0.0546875 2.378906 -0.132812 C 2.535156 -0.214844 2.539062 -0.222656 2.539062 -0.277344 Z M 1.84375 0.328125 C 1.84375 0.253906 1.789062 0.253906 1.699219 0.253906 L 1.601562 0.253906 C 1.484375 0.253906 1.476562 0.261719 1.40625 0.371094 C 1.34375 0.464844 0.9375 1.082031 0.9375 1.117188 C 0.9375 1.1875 0.996094 1.1875 1.082031 1.1875 L 1.359375 1.1875 C 1.484375 1.1875 1.488281 1.1875 1.535156 1.089844 L 1.816406 0.417969 C 1.84375 0.34375 1.84375 0.328125 1.84375 0.328125 Z "/>
</g>
<g id="glyph-0-5">
<path d="M 2.632812 -0.265625 L 2.632812 -1.753906 C 2.632812 -2.632812 1.789062 -2.640625 1.511719 -2.640625 C 1.25 -2.640625 0.972656 -2.617188 0.601562 -2.460938 C 0.484375 -2.410156 0.457031 -2.394531 0.457031 -2.332031 C 0.457031 -2.292969 0.488281 -1.972656 0.496094 -1.929688 C 0.5 -1.894531 0.527344 -1.867188 0.566406 -1.867188 C 0.59375 -1.867188 0.609375 -1.882812 0.628906 -1.898438 C 0.867188 -2.148438 1.144531 -2.273438 1.488281 -2.273438 C 1.789062 -2.273438 1.878906 -2.089844 1.878906 -1.761719 L 1.878906 -1.566406 C 1.683594 -1.566406 0.226562 -1.554688 0.226562 -0.738281 C 0.226562 -0.351562 0.539062 0.0625 1.027344 0.0625 C 1.214844 0.0625 1.632812 0.00390625 1.894531 -0.378906 L 1.894531 -0.265625 C 1.894531 -0.0898438 1.933594 0 2.160156 0 L 2.367188 0 C 2.578125 0 2.632812 -0.0703125 2.632812 -0.265625 Z M 1.878906 -0.855469 C 1.878906 -0.339844 1.351562 -0.339844 1.332031 -0.339844 C 1.101562 -0.339844 0.949219 -0.539062 0.949219 -0.75 C 0.949219 -1.292969 1.722656 -1.332031 1.878906 -1.339844 Z M 2.476562 -3.6875 C 2.476562 -3.785156 2.4375 -3.785156 2.328125 -3.785156 L 2.226562 -3.785156 C 2.117188 -3.785156 2.089844 -3.785156 2.078125 -3.699219 C 2.054688 -3.484375 1.921875 -3.457031 1.867188 -3.457031 C 1.777344 -3.457031 1.6875 -3.515625 1.605469 -3.578125 C 1.484375 -3.660156 1.3125 -3.785156 1.0625 -3.785156 C 0.667969 -3.785156 0.449219 -3.421875 0.449219 -3.148438 C 0.449219 -3.054688 0.496094 -3.054688 0.601562 -3.054688 L 0.699219 -3.054688 C 0.8125 -3.054688 0.839844 -3.054688 0.851562 -3.140625 C 0.871094 -3.355469 1.003906 -3.382812 1.0625 -3.382812 C 1.148438 -3.382812 1.238281 -3.324219 1.320312 -3.261719 C 1.445312 -3.179688 1.617188 -3.054688 1.867188 -3.054688 C 2.261719 -3.054688 2.476562 -3.417969 2.476562 -3.6875 Z "/>
</g>
<g id="glyph-0-6">
<rect x="0" y="0" width="0" height="0" mask="url(#mask-0)"/>
</g>
<g id="glyph-0-7">
<path d="M 2.90625 -1.285156 C 2.90625 -1.554688 2.90625 -2.605469 1.898438 -2.605469 C 1.570312 -2.605469 1.277344 -2.472656 1.078125 -2.285156 C 1.078125 -2.488281 1 -2.542969 0.8125 -2.542969 L 0.605469 -2.542969 C 0.40625 -2.542969 0.339844 -2.484375 0.339844 -2.277344 L 0.339844 0.8125 C 0.339844 1.011719 0.398438 1.078125 0.605469 1.078125 L 0.828125 1.078125 C 1.039062 1.078125 1.09375 1.003906 1.09375 0.8125 L 1.09375 -0.214844 C 1.34375 0.0625 1.648438 0.0625 1.726562 0.0625 C 2.90625 0.0625 2.90625 -1.003906 2.90625 -1.285156 Z M 2.148438 -1.273438 C 2.148438 -1.050781 2.148438 -0.339844 1.523438 -0.339844 C 1.394531 -0.339844 1.292969 -0.382812 1.226562 -0.433594 C 1.09375 -0.527344 1.09375 -0.554688 1.09375 -0.65625 L 1.09375 -1.988281 C 1.15625 -2.042969 1.339844 -2.171875 1.578125 -2.171875 C 2.144531 -2.171875 2.148438 -1.515625 2.148438 -1.273438 Z "/>
</g>
<g id="glyph-0-8">
<path d="M 2.632812 -0.265625 L 2.632812 -1.753906 C 2.632812 -2.632812 1.789062 -2.640625 1.511719 -2.640625 C 1.25 -2.640625 0.972656 -2.617188 0.601562 -2.460938 C 0.484375 -2.410156 0.457031 -2.394531 0.457031 -2.332031 C 0.457031 -2.292969 0.488281 -1.972656 0.496094 -1.929688 C 0.5 -1.894531 0.527344 -1.867188 0.566406 -1.867188 C 0.59375 -1.867188 0.609375 -1.882812 0.628906 -1.898438 C 0.867188 -2.148438 1.144531 -2.273438 1.488281 -2.273438 C 1.789062 -2.273438 1.878906 -2.089844 1.878906 -1.761719 L 1.878906 -1.566406 C 1.683594 -1.566406 0.226562 -1.554688 0.226562 -0.738281 C 0.226562 -0.351562 0.539062 0.0625 1.027344 0.0625 C 1.214844 0.0625 1.632812 0.00390625 1.894531 -0.378906 L 1.894531 -0.265625 C 1.894531 -0.0898438 1.933594 0 2.160156 0 L 2.367188 0 C 2.578125 0 2.632812 -0.0703125 2.632812 -0.265625 Z M 1.878906 -0.855469 C 1.878906 -0.339844 1.351562 -0.339844 1.332031 -0.339844 C 1.101562 -0.339844 0.949219 -0.539062 0.949219 -0.75 C 0.949219 -1.292969 1.722656 -1.332031 1.878906 -1.339844 Z "/>
</g>
<g id="glyph-0-9">
<path d="M 1.976562 -2.195312 L 1.976562 -2.457031 C 1.976562 -2.566406 1.976562 -2.605469 1.878906 -2.605469 C 1.722656 -2.605469 1.316406 -2.550781 1.054688 -1.949219 L 1.050781 -1.949219 L 1.050781 -2.3125 C 1.050781 -2.488281 1.011719 -2.578125 0.785156 -2.578125 L 0.605469 -2.578125 C 0.40625 -2.578125 0.339844 -2.515625 0.339844 -2.3125 L 0.339844 -0.265625 C 0.339844 -0.0664062 0.398438 0 0.605469 0 L 0.8125 0 C 1.023438 0 1.078125 -0.0703125 1.078125 -0.265625 L 1.078125 -1.277344 C 1.078125 -1.804688 1.515625 -2.023438 1.867188 -2.042969 C 1.964844 -2.050781 1.976562 -2.050781 1.976562 -2.195312 Z "/>
</g>
<g id="glyph-0-10">
<path d="M 2.070312 -0.261719 C 2.070312 -0.277344 2.0625 -0.316406 2.027344 -0.433594 C 2 -0.542969 1.988281 -0.578125 1.9375 -0.578125 C 1.910156 -0.578125 1.90625 -0.570312 1.871094 -0.539062 C 1.8125 -0.496094 1.660156 -0.371094 1.429688 -0.371094 C 1.292969 -0.371094 1.210938 -0.464844 1.210938 -0.832031 L 1.210938 -2.144531 L 1.707031 -2.144531 C 1.773438 -2.144531 1.972656 -2.144531 1.972656 -2.34375 C 1.972656 -2.542969 1.773438 -2.542969 1.707031 -2.542969 L 1.210938 -2.542969 L 1.210938 -3.003906 C 1.210938 -3.183594 1.171875 -3.273438 0.945312 -3.273438 L 0.773438 -3.273438 C 0.570312 -3.273438 0.503906 -3.210938 0.503906 -3.003906 L 0.503906 -2.542969 L 0.378906 -2.542969 C 0.316406 -2.542969 0.109375 -2.542969 0.109375 -2.34375 C 0.109375 -2.144531 0.3125 -2.144531 0.378906 -2.144531 L 0.488281 -2.144531 L 0.488281 -0.738281 C 0.488281 -0.179688 0.6875 0.0625 1.070312 0.0625 C 1.121094 0.0625 1.367188 0.0625 1.65625 -0.0273438 C 1.75 -0.0546875 2.070312 -0.15625 2.070312 -0.261719 Z "/>
</g>
<g id="glyph-0-11">
<path d="M 1.078125 -0.265625 L 1.078125 -2.277344 C 1.078125 -2.457031 1.039062 -2.542969 0.8125 -2.542969 L 0.605469 -2.542969 C 0.40625 -2.542969 0.339844 -2.484375 0.339844 -2.277344 L 0.339844 -0.265625 C 0.339844 -0.0664062 0.398438 0 0.605469 0 L 0.8125 0 C 1.023438 0 1.078125 -0.0703125 1.078125 -0.265625 Z M 1.117188 -3.367188 L 1.117188 -3.472656 C 1.117188 -3.648438 1.078125 -3.738281 0.851562 -3.738281 L 0.566406 -3.738281 C 0.355469 -3.738281 0.300781 -3.667969 0.300781 -3.472656 L 0.300781 -3.367188 C 0.300781 -3.207031 0.328125 -3.101562 0.566406 -3.101562 L 0.851562 -3.101562 C 1.082031 -3.101562 1.117188 -3.199219 1.117188 -3.367188 Z "/>
</g>
<g id="glyph-0-12">
<path d="M 2.539062 -0.277344 C 2.539062 -0.339844 2.515625 -0.59375 2.503906 -0.667969 C 2.503906 -0.683594 2.496094 -0.738281 2.4375 -0.738281 C 2.417969 -0.738281 2.40625 -0.738281 2.351562 -0.683594 C 2.253906 -0.601562 1.996094 -0.371094 1.539062 -0.371094 C 0.960938 -0.371094 0.960938 -0.933594 0.960938 -1.289062 C 0.960938 -1.738281 0.988281 -2.207031 1.554688 -2.207031 C 1.917969 -2.207031 2.066406 -2.117188 2.265625 -1.949219 C 2.332031 -1.890625 2.34375 -1.890625 2.367188 -1.890625 C 2.421875 -1.890625 2.433594 -1.9375 2.4375 -1.960938 C 2.449219 -2.003906 2.503906 -2.316406 2.503906 -2.34375 C 2.503906 -2.394531 2.464844 -2.417969 2.371094 -2.460938 C 2.105469 -2.582031 1.9375 -2.640625 1.550781 -2.640625 C 0.722656 -2.640625 0.207031 -2.25 0.207031 -1.277344 C 0.207031 -0.355469 0.683594 0.0625 1.523438 0.0625 C 1.671875 0.0625 2.003906 0.0546875 2.378906 -0.132812 C 2.535156 -0.214844 2.539062 -0.222656 2.539062 -0.277344 Z "/>
</g>
<g id="glyph-0-13">
<path d="M 1.210938 -1.964844 L 1.210938 -2.394531 C 1.210938 -2.539062 1.207031 -2.542969 1.0625 -2.542969 L 0.632812 -2.542969 C 0.488281 -2.542969 0.484375 -2.539062 0.484375 -2.394531 L 0.484375 -1.964844 C 0.484375 -1.820312 0.488281 -1.816406 0.632812 -1.816406 L 1.0625 -1.816406 C 1.207031 -1.816406 1.210938 -1.820312 1.210938 -1.964844 Z M 1.210938 -0.148438 L 1.210938 -0.578125 C 1.210938 -0.722656 1.207031 -0.726562 1.0625 -0.726562 L 0.632812 -0.726562 C 0.488281 -0.726562 0.484375 -0.722656 0.484375 -0.578125 L 0.484375 -0.148438 C 0.484375 -0.00390625 0.488281 0 0.632812 0 L 1.0625 0 C 1.207031 0 1.210938 -0.00390625 1.210938 -0.148438 Z "/>
</g>
</g>
<image id="source-368" x="0" y="0" width="0" height="0"/>
<mask id="mask-0">
<use xlink:href="#source-368"/>
</mask>
</defs>
<g fill="rgb(90.980392%, 63.529412%, 39.607843%)" fill-opacity="1">
<use xlink:href="#glyph-0-0" x="30" y="26.299805"/>
<use xlink:href="#glyph-0-1" x="33" y="26.299805"/>
<use xlink:href="#glyph-0-2" x="36" y="26.299805"/>
<use xlink:href="#glyph-0-3" x="37" y="26.299805"/>
<use xlink:href="#glyph-0-4" x="40" y="26.299805"/>
<use xlink:href="#glyph-0-5" x="43" y="26.299805"/>
<use xlink:href="#glyph-0-1" x="46" y="26.299805"/>
<use xlink:href="#glyph-0-6" x="49" y="26.299805"/>
<use xlink:href="#glyph-0-7" x="51" y="26.299805"/>
<use xlink:href="#glyph-0-8" x="54" y="26.299805"/>
<use xlink:href="#glyph-0-9" x="57" y="26.299805"/>
<use xlink:href="#glyph-0-10" x="59" y="26.299805"/>
<use xlink:href="#glyph-0-11" x="61" y="26.299805"/>
<use xlink:href="#glyph-0-12" x="62" y="26.299805"/>
<use xlink:href="#glyph-0-3" x="65" y="26.299805"/>
<use xlink:href="#glyph-0-2" x="68" y="26.299805"/>
<use xlink:href="#glyph-0-8" x="69" y="26.299805"/>
<use xlink:href="#glyph-0-9" x="72" y="26.299805"/>
<use xlink:href="#glyph-0-13" x="74" y="26.299805"/>
</g>
</svg>
