<?xml version="1.0" encoding="UTF-8"?>
<svg xmlns="http://www.w3.org/2000/svg" xmlns:xlink="http://www.w3.org/1999/xlink" width="1920" height="1080" viewBox="0 0 1920 1080">
<defs>
<g>
<g id="glyph-0-0">
<path d="M 3.507812 -1.800781 C 3.507812 -2.824219 2.796875 -3.664062 1.890625 -3.664062 L 0.507812 -3.664062 L 0.507812 0 L 1.894531 0 C 2.792969 0 3.507812 -0.800781 3.507812 -1.800781 Z M 3.054688 -1.800781 C 3.054688 -0.902344 2.507812 -0.296875 1.769531 -0.296875 L 0.960938 -0.296875 L 0.960938 -3.367188 L 1.769531 -3.367188 C 2.507812 -3.367188 3.054688 -2.726562 3.054688 -1.800781 Z "/>
</g>
<g id="glyph-0-1">
<path d="M 2.183594 -1.15625 C 2.183594 -1.335938 2.179688 -1.730469 1.972656 -2.046875 C 1.757812 -2.375 1.433594 -2.433594 1.246094 -2.433594 C 0.660156 -2.433594 0.183594 -1.875 0.183594 -1.191406 C 0.183594 -0.496094 0.691406 0.0585938 1.324219 0.0585938 C 1.65625 0.0585938 1.957031 -0.0703125 2.164062 -0.214844 L 2.132812 -0.558594 C 1.800781 -0.285156 1.453125 -0.265625 1.328125 -0.265625 C 0.90625 -0.265625 0.570312 -0.636719 0.554688 -1.15625 Z M 1.882812 -1.445312 L 0.582031 -1.445312 C 0.664062 -1.847656 0.945312 -2.109375 1.246094 -2.109375 C 1.519531 -2.109375 1.816406 -1.929688 1.882812 -1.445312 Z "/>
</g>
<g id="glyph-0-2">
<path d="M 1.726562 -2.046875 L 1.726562 -2.402344 C 1.257812 -2.394531 0.964844 -2.136719 0.800781 -1.894531 L 0.800781 -2.375 L 0.433594 -2.375 L 0.433594 0 L 0.828125 0 L 0.828125 -1.128906 C 0.828125 -1.65625 1.207031 -2.035156 1.726562 -2.046875 Z "/>
</g>
<g id="glyph-0-3">
<path d="M 0.824219 0 L 0.824219 -2.34375 L 0.425781 -2.34375 L 0.425781 0 Z M 0.867188 -2.988281 L 0.867188 -3.457031 L 0.394531 -3.457031 L 0.394531 -2.988281 Z "/>
</g>
<g id="glyph-0-4">
<path d="M 2.355469 -2.34375 L 1.957031 -2.34375 L 1.539062 -1.246094 C 1.429688 -0.957031 1.265625 -0.527344 1.222656 -0.28125 L 1.21875 -0.28125 C 1.1875 -0.46875 1.050781 -0.832031 0.996094 -0.976562 L 0.484375 -2.34375 L 0.0742188 -2.34375 L 0.980469 0 L 1.445312 0 Z "/>
</g>
<g id="glyph-0-5">
<path d="M 2.160156 0 L 2.160156 -1.523438 C 2.160156 -2.0625 1.773438 -2.433594 1.289062 -2.433594 C 0.945312 -2.433594 0.707031 -2.347656 0.460938 -2.207031 L 0.492188 -1.859375 C 0.765625 -2.054688 1.027344 -2.121094 1.289062 -2.121094 C 1.535156 -2.121094 1.746094 -1.910156 1.746094 -1.519531 L 1.746094 -1.292969 C 0.957031 -1.28125 0.285156 -1.0625 0.285156 -0.597656 C 0.285156 -0.371094 0.425781 0.0585938 0.886719 0.0585938 C 0.960938 0.0585938 1.457031 0.046875 1.761719 -0.191406 L 1.761719 0 Z M 1.746094 -0.695312 C 1.746094 -0.597656 1.746094 -0.464844 1.566406 -0.363281 C 1.414062 -0.269531 1.214844 -0.265625 1.15625 -0.265625 C 0.902344 -0.265625 0.664062 -0.386719 0.664062 -0.605469 C 0.664062 -0.976562 1.519531 -1.011719 1.746094 -1.023438 Z "/>
</g>
<g id="glyph-0-6">
<path d="M 2.289062 0 L 2.289062 -3.664062 L 1.894531 -3.664062 L 1.894531 -2.109375 C 1.613281 -2.34375 1.320312 -2.402344 1.125 -2.402344 C 0.601562 -2.402344 0.191406 -1.851562 0.191406 -1.171875 C 0.191406 -0.480469 0.597656 0.0585938 1.097656 0.0585938 C 1.273438 0.0585938 1.582031 0.0117188 1.878906 -0.273438 L 1.878906 0 Z M 1.878906 -0.734375 C 1.878906 -0.660156 1.875 -0.566406 1.703125 -0.410156 C 1.582031 -0.304688 1.453125 -0.265625 1.3125 -0.265625 C 0.988281 -0.265625 0.601562 -0.511719 0.601562 -1.167969 C 0.601562 -1.863281 1.054688 -2.078125 1.367188 -2.078125 C 1.605469 -2.078125 1.761719 -1.957031 1.878906 -1.789062 Z "/>
</g>
<g id="glyph-0-7">
<path d="M 1.898438 -0.675781 C 1.898438 -0.964844 1.703125 -1.144531 1.695312 -1.160156 C 1.488281 -1.347656 1.347656 -1.378906 1.082031 -1.425781 C 0.792969 -1.484375 0.550781 -1.535156 0.550781 -1.792969 C 0.550781 -2.121094 0.929688 -2.121094 0.996094 -2.121094 C 1.167969 -2.121094 1.445312 -2.101562 1.746094 -1.921875 L 1.808594 -2.265625 C 1.535156 -2.390625 1.320312 -2.433594 1.050781 -2.433594 C 0.917969 -2.433594 0.175781 -2.433594 0.175781 -1.742188 C 0.175781 -1.484375 0.328125 -1.3125 0.460938 -1.214844 C 0.621094 -1.097656 0.738281 -1.078125 1.027344 -1.019531 C 1.21875 -0.980469 1.523438 -0.917969 1.523438 -0.636719 C 1.523438 -0.273438 1.109375 -0.273438 1.027344 -0.273438 C 0.601562 -0.273438 0.304688 -0.46875 0.210938 -0.53125 L 0.148438 -0.175781 C 0.316406 -0.0898438 0.605469 0.0585938 1.035156 0.0585938 C 1.128906 0.0585938 1.417969 0.0585938 1.648438 -0.109375 C 1.808594 -0.238281 1.898438 -0.449219 1.898438 -0.675781 Z "/>
</g>
<g id="glyph-0-8">
<rect x="0" y="0" width="0" height="0" mask="url(#mask-0)"/>
</g>
<g id="glyph-0-9">
<path d="M 2.53125 -1.175781 C 2.53125 -1.808594 2.199219 -2.402344 1.695312 -2.402344 C 1.378906 -2.402344 1.070312 -2.289062 0.828125 -2.085938 L 0.828125 -2.34375 L 0.433594 -2.34375 L 0.433594 1.023438 L 0.84375 1.023438 L 0.84375 -0.242188 C 1.007812 -0.0898438 1.238281 0.0585938 1.558594 0.0585938 C 2.070312 0.0585938 2.53125 -0.460938 2.53125 -1.175781 Z M 2.121094 -1.175781 C 2.121094 -0.632812 1.746094 -0.265625 1.351562 -0.265625 C 1.144531 -0.265625 1.003906 -0.371094 0.898438 -0.511719 C 0.84375 -0.589844 0.84375 -0.601562 0.84375 -0.695312 L 0.84375 -1.757812 C 0.972656 -1.941406 1.175781 -2.0625 1.402344 -2.0625 C 1.804688 -2.0625 2.121094 -1.664062 2.121094 -1.175781 Z "/>
</g>
<g id="glyph-0-10">
<path d="M 2.191406 -0.210938 L 2.160156 -0.566406 C 1.890625 -0.355469 1.605469 -0.28125 1.335938 -0.28125 C 0.898438 -0.28125 0.601562 -0.660156 0.601562 -1.175781 C 0.601562 -1.589844 0.796875 -2.09375 1.355469 -2.09375 C 1.628906 -2.09375 1.808594 -2.054688 2.101562 -1.863281 L 2.164062 -2.207031 C 1.851562 -2.386719 1.671875 -2.433594 1.351562 -2.433594 C 0.617188 -2.433594 0.191406 -1.792969 0.191406 -1.171875 C 0.191406 -0.515625 0.671875 0.0585938 1.328125 0.0585938 C 1.613281 0.0585938 1.90625 -0.015625 2.191406 -0.210938 Z "/>
</g>
<g id="glyph-0-11">
<path d="M 2.191406 -2.902344 C 2.191406 -3.261719 1.980469 -3.71875 1.183594 -3.71875 C 0.859375 -3.71875 0.574219 -3.628906 0.296875 -3.441406 L 0.417969 -3.109375 C 0.542969 -3.222656 0.800781 -3.398438 1.183594 -3.398438 C 1.429688 -3.398438 1.777344 -3.355469 1.777344 -2.90625 C 1.777344 -2.671875 1.664062 -2.570312 1.59375 -2.507812 C 0.992188 -1.996094 0.992188 -1.320312 0.992188 -1.09375 L 0.992188 -0.921875 L 1.347656 -0.921875 L 1.347656 -1.207031 C 1.347656 -1.574219 1.523438 -1.964844 1.890625 -2.269531 C 1.988281 -2.355469 2.191406 -2.523438 2.191406 -2.902344 Z M 1.386719 0 L 1.386719 -0.4375 L 0.949219 -0.4375 L 0.949219 0 Z "/>
</g>
</g>
<image id="source-608" x="0" y="0" width="0" height="0"/>
<mask id="mask-0">
<use xlink:href="#source-608"/>
</mask>
</defs>
<g fill="rgb(72.156863%, 83.137255%, 92.54902%)" fill-opacity="1">
<use xlink:href="#glyph-0-0" x="30" y="26.089844"/>
<use xlink:href="#glyph-0-1" x="34" y="26.089844"/>
<use xlink:href="#glyph-0-2" x="36" y="26.089844"/>
<use xlink:href="#glyph-0-3" x="38" y="26.089844"/>
<use xlink:href="#glyph-0-4" x="39" y="26.089844"/>
<use xlink:href="#glyph-0-5" x="41" y="26.089844"/>
<use xlink:href="#glyph-0-6" x="44" y="26.089844"/>
<use xlink:href="#glyph-0-5" x="47" y="26.089844"/>
<use xlink:href="#glyph-0-7" x="50" y="26.089844"/>
<use xlink:href="#glyph-0-8" x="52" y="26.089844"/>
<use xlink:href="#glyph-0-9" x="54" y="26.089844"/>
<use xlink:href="#glyph-0-5" x="57" y="26.089844"/>
<use xlink:href="#glyph-0-2" x="59" y="26.089844"/>
<use xlink:href="#glyph-0-10" x="61" y="26.089844"/>
<use xlink:href="#glyph-0-3" x="63" y="26.089844"/>
<use xlink:href="#glyph-0-5" x="64" y="26.089844"/>
<use xlink:href="#glyph-0-3" x="67" y="26.089844"/>
<use xlink:href="#glyph-0-7" x="68" y="26.089844"/>
<use xlink:href="#glyph-0-11" x="70" y="26.089844"/>
</g>
</svg>
