<?xml version="1.0" encoding="UTF-8"?>
<svg xmlns="http://www.w3.org/2000/svg" xmlns:xlink="http://www.w3.org/1999/xlink" width="1920" height="1080" viewBox="0 0 1920 1080">
<defs>
<g>
<g id="glyph-0-0">
<path d="M 2.722656 -1.160156 C 2.871094 -1.867188 2.464844 -2.433594 1.835938 -2.433594 C 1.1875 -2.433594 0.554688 -1.851562 0.40625 -1.160156 C 0.257812 -0.464844 0.6875 0.0585938 1.304688 0.0585938 C 1.9375 0.0585938 2.574219 -0.476562 2.722656 -1.160156 Z M 2.320312 -1.214844 C 2.191406 -0.589844 1.761719 -0.28125 1.371094 -0.28125 C 1.007812 -0.28125 0.691406 -0.574219 0.828125 -1.214844 C 0.964844 -1.851562 1.417969 -2.109375 1.761719 -2.109375 C 2.132812 -2.109375 2.453125 -1.835938 2.320312 -1.214844 Z "/>
</g>
<g id="glyph-0-1">
<path d="M 2.296875 0 L 2.628906 -1.574219 C 2.703125 -1.921875 2.726562 -2.402344 2.085938 -2.402344 C 1.609375 -2.402344 1.273438 -2.042969 1.234375 -2 L 1.3125 -2.375 L 0.933594 -2.375 L 0.425781 0 L 0.839844 0 L 1.113281 -1.292969 C 1.1875 -1.640625 1.414062 -2.078125 1.816406 -2.078125 C 2.320312 -2.078125 2.25 -1.703125 2.210938 -1.535156 L 1.882812 0 Z "/>
</g>
<g id="glyph-0-2">
<path d="M 2.289062 0 L 3.070312 -3.664062 L 2.675781 -3.664062 L 2.34375 -2.109375 C 2.109375 -2.34375 1.832031 -2.402344 1.636719 -2.402344 C 1.113281 -2.402344 0.585938 -1.851562 0.4375 -1.171875 C 0.289062 -0.480469 0.585938 0.0585938 1.085938 0.0585938 C 1.261719 0.0585938 1.582031 0.0117188 1.9375 -0.273438 L 1.878906 0 Z M 2.035156 -0.734375 C 2.019531 -0.660156 1.996094 -0.566406 1.792969 -0.410156 C 1.648438 -0.304688 1.507812 -0.265625 1.371094 -0.265625 C 1.042969 -0.265625 0.710938 -0.511719 0.851562 -1.167969 C 0.996094 -1.863281 1.5 -2.078125 1.808594 -2.078125 C 2.046875 -2.078125 2.179688 -1.957031 2.257812 -1.789062 Z "/>
</g>
<g id="glyph-0-3">
<path d="M 2.433594 -1.15625 C 2.46875 -1.335938 2.550781 -1.730469 2.40625 -2.046875 C 2.265625 -2.375 1.953125 -2.433594 1.761719 -2.433594 C 1.175781 -2.433594 0.582031 -1.875 0.4375 -1.191406 C 0.289062 -0.496094 0.679688 0.0585938 1.3125 0.0585938 C 1.648438 0.0585938 1.972656 -0.0703125 2.210938 -0.214844 L 2.253906 -0.558594 C 1.859375 -0.285156 1.507812 -0.265625 1.386719 -0.265625 C 0.964844 -0.265625 0.707031 -0.636719 0.800781 -1.15625 Z M 2.191406 -1.445312 L 0.886719 -1.445312 C 1.054688 -1.847656 1.394531 -2.109375 1.695312 -2.109375 C 1.96875 -2.109375 2.226562 -1.929688 2.191406 -1.445312 Z "/>
</g>
<g id="glyph-0-4">
<rect x="0" y="0" width="0" height="0" mask="url(#mask-0)"/>
</g>
<g id="glyph-0-5">
<path d="M 4.09375 -3.289062 L 4.167969 -3.628906 L 0.960938 -3.628906 L 0.886719 -3.289062 L 1.59375 -3.289062 C 1.65625 -3.289062 1.726562 -3.292969 1.789062 -3.292969 L 2.265625 -3.292969 L 1.5625 0 L 2.03125 0 L 2.734375 -3.292969 L 3.203125 -3.292969 C 3.265625 -3.292969 3.324219 -3.289062 3.386719 -3.289062 Z "/>
</g>
<g id="glyph-0-6">
<path d="M 3.335938 0.867188 L 3.425781 0.453125 L -0.09375 0.453125 L -0.183594 0.867188 Z "/>
</g>
<g id="glyph-0-7">
<path d="M 3.761719 0 L 4.09375 -1.574219 C 4.175781 -1.925781 4.191406 -2.402344 3.550781 -2.402344 C 3.234375 -2.402344 2.929688 -2.253906 2.671875 -1.96875 C 2.617188 -2.371094 2.257812 -2.402344 2.089844 -2.402344 C 1.710938 -2.402344 1.414062 -2.183594 1.230469 -1.996094 L 1.3125 -2.375 L 0.933594 -2.375 L 0.425781 0 L 0.839844 0 L 1.113281 -1.292969 C 1.191406 -1.652344 1.425781 -2.078125 1.816406 -2.078125 C 2.304688 -2.078125 2.257812 -1.734375 2.214844 -1.535156 L 1.890625 0 L 2.300781 0 L 2.574219 -1.292969 C 2.65625 -1.652344 2.886719 -2.078125 3.277344 -2.078125 C 3.769531 -2.078125 3.71875 -1.734375 3.679688 -1.535156 L 3.351562 0 Z "/>
</g>
<g id="glyph-0-8">
<path d="M 4.195312 -1.847656 C 4.222656 -1.953125 4.121094 -1.953125 4.046875 -1.953125 L 0.886719 -1.953125 C 0.8125 -1.953125 0.710938 -1.953125 0.6875 -1.847656 C 0.664062 -1.742188 0.765625 -1.742188 0.84375 -1.742188 L 3.996094 -1.742188 C 4.074219 -1.742188 4.175781 -1.742188 4.195312 -1.847656 Z M 3.972656 -0.792969 C 3.996094 -0.898438 3.894531 -0.898438 3.816406 -0.898438 L 0.664062 -0.898438 C 0.585938 -0.898438 0.484375 -0.898438 0.464844 -0.792969 C 0.441406 -0.6875 0.542969 -0.6875 0.617188 -0.6875 L 3.777344 -0.6875 C 3.851562 -0.6875 3.953125 -0.6875 3.972656 -0.792969 Z "/>
</g>
<g id="glyph-0-9">
<path d="M 2.371094 0 L 2.449219 -0.375 L 1.488281 -0.375 C 1.425781 -0.375 1.363281 -0.371094 1.296875 -0.371094 L 0.722656 -0.371094 L 1.605469 -1.066406 C 1.726562 -1.160156 2.042969 -1.382812 2.164062 -1.476562 C 2.449219 -1.714844 2.792969 -1.996094 2.886719 -2.445312 C 3.019531 -3.050781 2.703125 -3.578125 2.003906 -3.578125 C 1.402344 -3.578125 1.023438 -3.167969 0.796875 -2.710938 C 0.84375 -2.621094 0.859375 -2.589844 0.871094 -2.574219 C 0.875 -2.566406 0.917969 -2.496094 0.957031 -2.421875 C 1.144531 -2.828125 1.382812 -3.242188 1.863281 -3.242188 C 2.359375 -3.242188 2.542969 -2.84375 2.453125 -2.433594 C 2.359375 -1.984375 1.996094 -1.683594 1.613281 -1.367188 L 1.128906 -0.992188 L 0.335938 -0.335938 L 0.265625 0 Z "/>
</g>
<g id="glyph-0-10">
<path d="M 2.777344 -1.71875 C 2.867188 -2.136719 2.949219 -2.628906 2.816406 -3.054688 C 2.6875 -3.453125 2.347656 -3.578125 2.078125 -3.578125 C 1.769531 -3.578125 1.367188 -3.4375 1.050781 -2.964844 C 0.796875 -2.582031 0.675781 -2.144531 0.585938 -1.71875 C 0.5 -1.304688 0.4375 -0.917969 0.511719 -0.53125 C 0.617188 -0.0273438 0.988281 0.117188 1.289062 0.117188 C 1.671875 0.117188 2.054688 -0.101562 2.300781 -0.464844 C 2.53125 -0.808594 2.660156 -1.15625 2.777344 -1.71875 Z M 2.378906 -1.785156 C 2.304688 -1.433594 2.230469 -1.101562 2.070312 -0.769531 C 1.832031 -0.289062 1.53125 -0.207031 1.363281 -0.207031 C 1.085938 -0.207031 0.914062 -0.40625 0.890625 -0.785156 C 0.871094 -1.085938 0.921875 -1.371094 1.011719 -1.785156 C 1.082031 -2.117188 1.152344 -2.433594 1.304688 -2.722656 C 1.355469 -2.824219 1.578125 -3.257812 2.003906 -3.257812 C 2.417969 -3.257812 2.46875 -2.855469 2.484375 -2.761719 C 2.523438 -2.464844 2.449219 -2.109375 2.378906 -1.785156 Z "/>
</g>
<g id="glyph-0-11">
<path d="M 2.34375 -2.933594 C 2.425781 -3.335938 2.175781 -3.664062 1.773438 -3.664062 C 1.367188 -3.664062 0.964844 -3.335938 0.882812 -2.933594 C 0.796875 -2.527344 1.054688 -2.199219 1.460938 -2.199219 C 1.863281 -2.199219 2.257812 -2.527344 2.34375 -2.933594 Z M 2.132812 -2.933594 C 2.070312 -2.644531 1.789062 -2.410156 1.503906 -2.410156 C 1.214844 -2.410156 1.027344 -2.644531 1.09375 -2.933594 C 1.15625 -3.21875 1.433594 -3.453125 1.726562 -3.453125 C 2.011719 -3.453125 2.195312 -3.21875 2.132812 -2.933594 Z "/>
</g>
<g id="glyph-0-12">
<path d="M 3.152344 -0.238281 L 3.191406 -0.601562 C 3.019531 -0.496094 2.84375 -0.394531 2.65625 -0.34375 C 2.46875 -0.285156 2.285156 -0.28125 2.105469 -0.28125 C 1.761719 -0.28125 1.492188 -0.464844 1.335938 -0.734375 C 1.15625 -1.042969 1.125 -1.433594 1.207031 -1.832031 C 1.292969 -2.226562 1.492188 -2.621094 1.800781 -2.933594 C 2.074219 -3.203125 2.421875 -3.386719 2.765625 -3.386719 C 2.921875 -3.386719 3.085938 -3.371094 3.230469 -3.324219 C 3.378906 -3.277344 3.507812 -3.199219 3.625 -3.101562 L 3.789062 -3.535156 C 3.648438 -3.597656 3.492188 -3.652344 3.328125 -3.683594 C 3.175781 -3.714844 3.007812 -3.726562 2.839844 -3.726562 C 2.375 -3.726562 1.90625 -3.515625 1.519531 -3.171875 C 1.113281 -2.800781 0.84375 -2.320312 0.738281 -1.832031 C 0.632812 -1.339844 0.703125 -0.859375 0.949219 -0.496094 C 1.1875 -0.152344 1.574219 0.0585938 2.035156 0.0585938 C 2.222656 0.0585938 2.40625 0.0546875 2.597656 0 C 2.785156 -0.046875 2.972656 -0.140625 3.152344 -0.238281 Z "/>
</g>
<g id="glyph-0-13">
<path d="M 2.433594 -1.15625 C 2.46875 -1.335938 2.550781 -1.730469 2.40625 -2.046875 C 2.265625 -2.375 1.953125 -2.433594 1.761719 -2.433594 C 1.175781 -2.433594 0.582031 -1.875 0.4375 -1.191406 C 0.289062 -0.496094 0.679688 0.0585938 1.3125 0.0585938 C 1.648438 0.0585938 1.972656 -0.0703125 2.210938 -0.214844 L 2.253906 -0.558594 C 1.859375 -0.285156 1.507812 -0.265625 1.386719 -0.265625 C 0.964844 -0.265625 0.707031 -0.636719 0.800781 -1.15625 Z M 2.191406 -1.445312 L 0.886719 -1.445312 C 1.054688 -1.847656 1.394531 -2.109375 1.695312 -2.109375 C 1.96875 -2.109375 2.226562 -1.929688 2.191406 -1.445312 Z M 2.695312 -3.664062 L 2.285156 -3.664062 L 1.394531 -2.78125 L 1.714844 -2.78125 Z "/>
</g>
<g id="glyph-0-14">
<path d="M 2.160156 0 L 2.480469 -1.523438 C 2.597656 -2.0625 2.289062 -2.433594 1.804688 -2.433594 C 1.460938 -2.433594 1.207031 -2.347656 0.929688 -2.207031 L 0.886719 -1.859375 C 1.203125 -2.054688 1.476562 -2.121094 1.734375 -2.121094 C 1.984375 -2.121094 2.152344 -1.910156 2.070312 -1.519531 L 2.019531 -1.292969 C 1.230469 -1.28125 0.511719 -1.0625 0.410156 -0.597656 C 0.363281 -0.371094 0.417969 0.0585938 0.875 0.0585938 C 0.949219 0.0585938 1.445312 0.046875 1.804688 -0.191406 L 1.761719 0 Z M 1.894531 -0.695312 C 1.875 -0.597656 1.847656 -0.464844 1.648438 -0.363281 C 1.472656 -0.269531 1.273438 -0.265625 1.214844 -0.265625 C 0.960938 -0.265625 0.75 -0.386719 0.792969 -0.605469 C 0.871094 -0.976562 1.734375 -1.011719 1.964844 -1.023438 Z "/>
</g>
<g id="glyph-0-15">
<path d="M 1.785156 -0.140625 L 1.761719 -0.453125 C 1.605469 -0.34375 1.417969 -0.28125 1.25 -0.28125 C 1.054688 -0.28125 1.019531 -0.4375 1.078125 -0.71875 L 1.355469 -2.035156 L 2.101562 -2.035156 L 2.164062 -2.34375 L 1.417969 -2.34375 L 1.5625 -3.011719 L 1.199219 -3.011719 L 1.054688 -2.34375 L 0.597656 -2.34375 L 0.53125 -2.035156 L 0.976562 -2.035156 L 0.675781 -0.628906 C 0.613281 -0.3125 0.605469 0.0585938 0.972656 0.0585938 C 1.339844 0.0585938 1.636719 -0.0742188 1.785156 -0.140625 Z "/>
</g>
<g id="glyph-0-16">
<path d="M 2.78125 -1.175781 C 2.917969 -1.808594 2.710938 -2.402344 2.207031 -2.402344 C 1.890625 -2.402344 1.558594 -2.289062 1.273438 -2.085938 L 1.324219 -2.34375 L 0.929688 -2.34375 L 0.214844 1.023438 L 0.628906 1.023438 L 0.898438 -0.242188 C 1.027344 -0.0898438 1.230469 0.0585938 1.546875 0.0585938 C 2.058594 0.0585938 2.628906 -0.460938 2.78125 -1.175781 Z M 2.371094 -1.175781 C 2.257812 -0.632812 1.804688 -0.265625 1.410156 -0.265625 C 1.203125 -0.265625 1.082031 -0.371094 1.007812 -0.511719 C 0.972656 -0.589844 0.972656 -0.601562 0.992188 -0.695312 L 1.21875 -1.757812 C 1.382812 -1.941406 1.613281 -2.0625 1.839844 -2.0625 C 2.242188 -2.0625 2.476562 -1.664062 2.371094 -1.175781 Z "/>
</g>
<g id="glyph-0-17">
<path d="M 2.160156 -2.046875 L 2.238281 -2.402344 C 1.761719 -2.394531 1.417969 -2.136719 1.203125 -1.894531 L 1.308594 -2.375 L 0.9375 -2.375 L 0.433594 0 L 0.828125 0 L 1.066406 -1.128906 C 1.183594 -1.65625 1.640625 -2.035156 2.160156 -2.046875 Z "/>
</g>
<g id="glyph-0-18">
<path d="M 2.296875 0 L 2.792969 -2.34375 L 2.378906 -2.34375 L 2.058594 -0.8125 C 1.972656 -0.417969 1.636719 -0.230469 1.296875 -0.230469 C 0.921875 -0.230469 0.917969 -0.371094 0.964844 -0.597656 L 1.335938 -2.34375 L 0.921875 -2.34375 L 0.550781 -0.574219 C 0.46875 -0.195312 0.539062 0.0585938 0.976562 0.0585938 C 1.257812 0.0585938 1.648438 -0.0273438 1.953125 -0.253906 L 1.898438 0 Z "/>
</g>
<g id="glyph-0-19">
<path d="M 0.824219 0 L 1.320312 -2.34375 L 0.921875 -2.34375 L 0.425781 0 Z M 1.5 -2.988281 L 1.597656 -3.457031 L 1.128906 -3.457031 L 1.027344 -2.988281 Z "/>
</g>
<g id="glyph-0-20">
<path d="M 0.949219 0 L 1.042969 -0.4375 L 0.605469 -0.4375 L 0.511719 0 Z "/>
</g>
</g>
<image id="source-54" x="0" y="0" width="0" height="0"/>
<mask id="mask-0">
<use xlink:href="#source-54"/>
</mask>
</defs>
<g fill="rgb(36.078431%, 56.078431%, 70.980392%)" fill-opacity="1">
<use xlink:href="#glyph-0-0" x="30" y="26.089844"/>
<use xlink:href="#glyph-0-1" x="33" y="26.089844"/>
<use xlink:href="#glyph-0-2" x="36" y="26.089844"/>
<use xlink:href="#glyph-0-3" x="39" y="26.089844"/>
<use xlink:href="#glyph-0-4" x="41" y="26.089844"/>
<use xlink:href="#glyph-0-5" x="43" y="26.089844"/>
<use xlink:href="#glyph-0-6" x="47" y="26.089844"/>
<use xlink:href="#glyph-0-7" x="51" y="26.089844"/>
<use xlink:href="#glyph-0-4" x="55" y="26.089844"/>
<use xlink:href="#glyph-0-8" x="57" y="26.089844"/>
<use xlink:href="#glyph-0-4" x="61" y="26.089844"/>
<use xlink:href="#glyph-0-9" x="63" y="26.089844"/>
<use xlink:href="#glyph-0-10" x="66" y="26.089844"/>
<use xlink:href="#glyph-0-4" x="69" y="26.089844"/>
<use xlink:href="#glyph-0-11" x="71" y="26.089844"/>
<use xlink:href="#glyph-0-12" x="73" y="26.089844"/>
<use xlink:href="#glyph-0-4" x="76" y="26.089844"/>
<use xlink:href="#glyph-0-13" x="78" y="26.089844"/>
<use xlink:href="#glyph-0-4" x="80" y="26.089844"/>
<use xlink:href="#glyph-0-14" x="82" y="26.089844"/>
<use xlink:href="#glyph-0-4" x="85" y="26.089844"/>
<use xlink:href="#glyph-0-15" x="87" y="26.089844"/>
<use xlink:href="#glyph-0-3" x="89" y="26.089844"/>
<use xlink:href="#glyph-0-7" x="91" y="26.089844"/>
<use xlink:href="#glyph-0-16" x="95" y="26.089844"/>
<use xlink:href="#glyph-0-3" x="98" y="26.089844"/>
<use xlink:href="#glyph-0-17" x="100" y="26.089844"/>
<use xlink:href="#glyph-0-14" x="102" y="26.089844"/>
<use xlink:href="#glyph-0-15" x="105" y="26.089844"/>
<use xlink:href="#glyph-0-18" x="107" y="26.089844"/>
<use xlink:href="#glyph-0-17" x="110" y="26.089844"/>
<use xlink:href="#glyph-0-14" x="112" y="26.089844"/>
<use xlink:href="#glyph-0-4" x="115" y="26.089844"/>
<use xlink:href="#glyph-0-2" x="117" y="26.089844"/>
<use xlink:href="#glyph-0-0" x="120" y="26.089844"/>
<use xlink:href="#glyph-0-4" x="123" y="26.089844"/>
<use xlink:href="#glyph-0-7" x="125" y="26.089844"/>
<use xlink:href="#glyph-0-3" x="129" y="26.089844"/>
<use xlink:href="#glyph-0-19" x="131" y="26.089844"/>
<use xlink:href="#glyph-0-0" x="132" y="26.089844"/>
<use xlink:href="#glyph-0-20" x="135" y="26.089844"/>
</g>
</svg>
