<?xml version="1.0" encoding="UTF-8"?>
<svg xmlns="http://www.w3.org/2000/svg" xmlns:xlink="http://www.w3.org/1999/xlink" width="1920" height="1080" viewBox="0 0 1920 1080">
<defs>
<g>
<g id="glyph-0-0">
<path d="M 2.773438 -1.050781 C 2.773438 -1.410156 2.601562 -1.679688 2.476562 -1.8125 C 2.214844 -2.089844 2.035156 -2.140625 1.523438 -2.265625 C 1.199219 -2.34375 1.109375 -2.367188 0.945312 -2.511719 C 0.90625 -2.542969 0.75 -2.707031 0.75 -2.949219 C 0.75 -3.277344 1.050781 -3.609375 1.5625 -3.609375 C 2.027344 -3.609375 2.292969 -3.429688 2.5 -3.253906 L 2.582031 -3.699219 C 2.277344 -3.882812 1.972656 -3.976562 1.566406 -3.976562 C 0.792969 -3.976562 0.3125 -3.433594 0.3125 -2.882812 C 0.3125 -2.644531 0.390625 -2.410156 0.609375 -2.179688 C 0.84375 -1.929688 1.089844 -1.859375 1.417969 -1.785156 C 1.890625 -1.667969 1.945312 -1.648438 2.101562 -1.511719 C 2.210938 -1.417969 2.332031 -1.234375 2.332031 -0.996094 C 2.332031 -0.628906 2.027344 -0.261719 1.523438 -0.261719 C 1.292969 -0.261719 0.792969 -0.316406 0.328125 -0.710938 L 0.246094 -0.261719 C 0.734375 0.0429688 1.179688 0.121094 1.527344 0.121094 C 2.261719 0.121094 2.773438 -0.4375 2.773438 -1.050781 Z "/>
</g>
<g id="glyph-0-1">
<path d="M 2.605469 -1.222656 C 2.605469 -1.964844 2.050781 -2.5625 1.390625 -2.5625 C 0.707031 -2.5625 0.167969 -1.949219 0.167969 -1.222656 C 0.167969 -0.488281 0.734375 0.0625 1.382812 0.0625 C 2.050781 0.0625 2.605469 -0.5 2.605469 -1.222656 Z M 2.171875 -1.277344 C 2.171875 -0.621094 1.792969 -0.292969 1.382812 -0.292969 C 1 -0.292969 0.601562 -0.605469 0.601562 -1.277344 C 0.601562 -1.949219 1.023438 -2.222656 1.382812 -2.222656 C 1.773438 -2.222656 2.171875 -1.933594 2.171875 -1.277344 Z "/>
</g>
<g id="glyph-0-2">
<path d="M 0.867188 0 L 0.867188 -3.855469 L 0.449219 -3.855469 L 0.449219 0 Z "/>
</g>
<g id="glyph-0-3">
<path d="M 2.417969 0 L 2.417969 -2.464844 L 1.984375 -2.464844 L 1.984375 -0.855469 C 1.984375 -0.4375 1.671875 -0.246094 1.316406 -0.246094 C 0.921875 -0.246094 0.882812 -0.390625 0.882812 -0.628906 L 0.882812 -2.464844 L 0.449219 -2.464844 L 0.449219 -0.605469 C 0.449219 -0.207031 0.578125 0.0625 1.039062 0.0625 C 1.332031 0.0625 1.726562 -0.0273438 2 -0.265625 L 2 0 Z "/>
</g>
<g id="glyph-0-4">
<path d="M 2.304688 -0.222656 L 2.273438 -0.59375 C 1.988281 -0.371094 1.6875 -0.292969 1.40625 -0.292969 C 0.945312 -0.292969 0.632812 -0.695312 0.632812 -1.238281 C 0.632812 -1.671875 0.839844 -2.207031 1.429688 -2.207031 C 1.714844 -2.207031 1.90625 -2.160156 2.210938 -1.960938 L 2.277344 -2.324219 C 1.949219 -2.511719 1.761719 -2.5625 1.421875 -2.5625 C 0.648438 -2.5625 0.199219 -1.890625 0.199219 -1.234375 C 0.199219 -0.542969 0.707031 0.0625 1.398438 0.0625 C 1.699219 0.0625 2.003906 -0.015625 2.304688 -0.222656 Z M 1.617188 0.253906 L 1.277344 0.253906 L 0.867188 1.1875 L 1.25 1.1875 Z "/>
</g>
<g id="glyph-0-5">
<path d="M 2.273438 0 L 2.273438 -1.605469 C 2.273438 -2.171875 1.867188 -2.5625 1.355469 -2.5625 C 0.996094 -2.5625 0.746094 -2.472656 0.484375 -2.324219 L 0.515625 -1.957031 C 0.804688 -2.160156 1.082031 -2.234375 1.355469 -2.234375 C 1.617188 -2.234375 1.839844 -2.011719 1.839844 -1.601562 L 1.839844 -1.359375 C 1.003906 -1.351562 0.300781 -1.117188 0.300781 -0.628906 C 0.300781 -0.390625 0.449219 0.0625 0.933594 0.0625 C 1.011719 0.0625 1.535156 0.0507812 1.855469 -0.199219 L 1.855469 0 Z M 1.839844 -0.734375 C 1.839844 -0.628906 1.839844 -0.488281 1.648438 -0.382812 C 1.488281 -0.285156 1.277344 -0.277344 1.214844 -0.277344 C 0.949219 -0.277344 0.699219 -0.40625 0.699219 -0.640625 C 0.699219 -1.027344 1.601562 -1.066406 1.839844 -1.078125 Z M 2.261719 -3.722656 L 1.921875 -3.722656 C 1.917969 -3.535156 1.851562 -3.398438 1.707031 -3.398438 C 1.578125 -3.398438 1.460938 -3.476562 1.3125 -3.582031 C 1.207031 -3.65625 1.09375 -3.722656 0.957031 -3.722656 C 0.695312 -3.722656 0.421875 -3.496094 0.410156 -3.0625 L 0.75 -3.0625 C 0.753906 -3.25 0.820312 -3.382812 0.964844 -3.382812 C 1.09375 -3.382812 1.210938 -3.304688 1.359375 -3.199219 C 1.464844 -3.128906 1.578125 -3.0625 1.714844 -3.0625 C 1.976562 -3.0625 2.25 -3.289062 2.261719 -3.722656 Z "/>
</g>
<g id="glyph-0-6">
<rect x="0" y="0" width="0" height="0" mask="url(#mask-0)"/>
</g>
<g id="glyph-0-7">
<path d="M 2.410156 0 L 2.410156 -3.855469 L 1.996094 -3.855469 L 1.996094 -2.222656 C 1.699219 -2.464844 1.390625 -2.527344 1.183594 -2.527344 C 0.632812 -2.527344 0.199219 -1.949219 0.199219 -1.234375 C 0.199219 -0.503906 0.628906 0.0625 1.15625 0.0625 C 1.339844 0.0625 1.667969 0.0117188 1.976562 -0.289062 L 1.976562 0 Z M 1.976562 -0.773438 C 1.976562 -0.695312 1.972656 -0.59375 1.792969 -0.433594 C 1.667969 -0.320312 1.527344 -0.277344 1.382812 -0.277344 C 1.039062 -0.277344 0.632812 -0.539062 0.632812 -1.226562 C 0.632812 -1.960938 1.109375 -2.1875 1.4375 -2.1875 C 1.6875 -2.1875 1.855469 -2.0625 1.976562 -1.882812 Z "/>
</g>
<g id="glyph-0-8">
<path d="M 2.300781 -1.214844 C 2.300781 -1.40625 2.292969 -1.820312 2.078125 -2.15625 C 1.851562 -2.5 1.511719 -2.5625 1.3125 -2.5625 C 0.695312 -2.5625 0.195312 -1.972656 0.195312 -1.253906 C 0.195312 -0.523438 0.726562 0.0625 1.394531 0.0625 C 1.746094 0.0625 2.0625 -0.0703125 2.277344 -0.226562 L 2.246094 -0.589844 C 1.894531 -0.300781 1.527344 -0.277344 1.398438 -0.277344 C 0.957031 -0.277344 0.601562 -0.671875 0.582031 -1.214844 Z M 1.984375 -1.523438 L 0.609375 -1.523438 C 0.699219 -1.945312 0.996094 -2.222656 1.3125 -2.222656 C 1.601562 -2.222656 1.910156 -2.035156 1.984375 -1.523438 Z "/>
</g>
<g id="glyph-0-9">
<path d="M 2.410156 1.078125 L 2.410156 -2.527344 L 1.996094 -2.527344 L 1.996094 -2.148438 C 1.9375 -2.222656 1.667969 -2.527344 1.234375 -2.527344 C 0.679688 -2.527344 0.199219 -1.976562 0.199219 -1.226562 C 0.199219 -0.523438 0.605469 0.0625 1.140625 0.0625 C 1.449219 0.0625 1.746094 -0.0664062 1.976562 -0.277344 L 1.976562 1.078125 Z M 1.996094 -0.777344 C 1.996094 -0.679688 1.996094 -0.667969 1.9375 -0.59375 C 1.792969 -0.371094 1.589844 -0.277344 1.390625 -0.277344 C 0.964844 -0.277344 0.632812 -0.710938 0.632812 -1.226562 C 0.632812 -1.792969 1.035156 -2.171875 1.4375 -2.171875 C 1.820312 -2.171875 1.996094 -1.777344 1.996094 -1.554688 Z "/>
</g>
<g id="glyph-0-10">
<path d="M 0.867188 0 L 0.867188 -2.464844 L 0.449219 -2.464844 L 0.449219 0 Z M 0.910156 -3.144531 L 0.910156 -3.640625 L 0.417969 -3.640625 L 0.417969 -3.144531 Z "/>
</g>
<g id="glyph-0-11">
<path d="M 0.867188 0 L 0.867188 -2.464844 L 0.449219 -2.464844 L 0.449219 0 Z M 1.621094 -3.855469 L 1.1875 -3.855469 L 0.449219 -2.929688 L 0.789062 -2.929688 Z "/>
</g>
<g id="glyph-0-12">
<path d="M 2.667969 -1.238281 C 2.667969 -1.929688 2.289062 -2.527344 1.765625 -2.527344 C 1.550781 -2.527344 1.207031 -2.472656 0.871094 -2.199219 L 0.871094 -3.855469 L 0.457031 -3.855469 L 0.457031 0 L 0.890625 0 L 0.890625 -0.253906 C 1.023438 -0.132812 1.261719 0.0625 1.632812 0.0625 C 2.1875 0.0625 2.667969 -0.496094 2.667969 -1.238281 Z M 2.234375 -1.238281 C 2.234375 -0.515625 1.765625 -0.277344 1.429688 -0.277344 C 1.210938 -0.277344 1.027344 -0.378906 0.890625 -0.632812 L 0.890625 -1.859375 C 0.976562 -1.996094 1.179688 -2.1875 1.484375 -2.1875 C 1.8125 -2.1875 2.234375 -1.949219 2.234375 -1.238281 Z "/>
</g>
<g id="glyph-0-13">
<path d="M 1.816406 -2.15625 L 1.816406 -2.527344 C 1.320312 -2.523438 1.015625 -2.25 0.84375 -1.996094 L 0.84375 -2.5 L 0.457031 -2.5 L 0.457031 0 L 0.871094 0 L 0.871094 -1.1875 C 0.871094 -1.746094 1.273438 -2.144531 1.816406 -2.15625 Z "/>
</g>
</g>
<image id="source-91" x="0" y="0" width="0" height="0"/>
<mask id="mask-0">
<use xlink:href="#source-91"/>
</mask>
</defs>
<g fill="rgb(72.156863%, 83.137255%, 92.54902%)" fill-opacity="1">
<use xlink:href="#glyph-0-0" x="30" y="26.411133"/>
<use xlink:href="#glyph-0-1" x="33" y="26.411133"/>
<use xlink:href="#glyph-0-2" x="36" y="26.411133"/>
<use xlink:href="#glyph-0-3" x="37" y="26.411133"/>
<use xlink:href="#glyph-0-4" x="40" y="26.411133"/>
<use xlink:href="#glyph-0-5" x="42" y="26.411133"/>
<use xlink:href="#glyph-0-1" x="45" y="26.411133"/>
<use xlink:href="#glyph-0-6" x="48" y="26.411133"/>
<use xlink:href="#glyph-0-7" x="50" y="26.411133"/>
<use xlink:href="#glyph-0-8" x="53" y="26.411133"/>
<use xlink:href="#glyph-0-6" x="55" y="26.411133"/>
<use xlink:href="#glyph-0-8" x="57" y="26.411133"/>
<use xlink:href="#glyph-0-9" x="59" y="26.411133"/>
<use xlink:href="#glyph-0-3" x="62" y="26.411133"/>
<use xlink:href="#glyph-0-10" x="65" y="26.411133"/>
<use xlink:href="#glyph-0-2" x="66" y="26.411133"/>
<use xlink:href="#glyph-0-11" x="67" y="26.411133"/>
<use xlink:href="#glyph-0-12" x="68" y="26.411133"/>
<use xlink:href="#glyph-0-13" x="71" y="26.411133"/>
<use xlink:href="#glyph-0-10" x="73" y="26.411133"/>
<use xlink:href="#glyph-0-1" x="74" y="26.411133"/>
</g>
</svg>
