<?xml version="1.0" encoding="UTF-8"?>
<svg xmlns="http://www.w3.org/2000/svg" xmlns:xlink="http://www.w3.org/1999/xlink" width="1920" height="1080" viewBox="0 0 1920 1080">
<defs>
<g>
<g id="glyph-0-0">
<path d="M 2.121094 -0.164062 L 2.097656 -0.410156 C 1.992188 -0.339844 1.886719 -0.269531 1.765625 -0.234375 C 1.648438 -0.195312 1.523438 -0.191406 1.402344 -0.191406 C 1.167969 -0.191406 0.953125 -0.316406 0.804688 -0.5 C 0.640625 -0.714844 0.558594 -0.980469 0.558594 -1.253906 C 0.558594 -1.523438 0.640625 -1.792969 0.804688 -2.007812 C 0.953125 -2.191406 1.167969 -2.316406 1.402344 -2.316406 C 1.507812 -2.316406 1.621094 -2.308594 1.726562 -2.273438 C 1.835938 -2.242188 1.933594 -2.1875 2.027344 -2.121094 L 2.078125 -2.417969 C 1.972656 -2.460938 1.859375 -2.5 1.742188 -2.519531 C 1.632812 -2.542969 1.515625 -2.550781 1.402344 -2.550781 C 1.082031 -2.550781 0.789062 -2.40625 0.578125 -2.167969 C 0.355469 -1.917969 0.238281 -1.589844 0.238281 -1.253906 C 0.238281 -0.917969 0.355469 -0.589844 0.578125 -0.339844 C 0.789062 -0.105469 1.082031 0.0390625 1.402344 0.0390625 C 1.527344 0.0390625 1.652344 0.0351562 1.777344 0 C 1.898438 -0.03125 2.011719 -0.0976562 2.121094 -0.164062 Z "/>
</g>
<g id="glyph-0-1">
<path d="M 1.691406 -0.792969 C 1.691406 -1.277344 1.332031 -1.664062 0.902344 -1.664062 C 0.457031 -1.664062 0.109375 -1.265625 0.109375 -0.792969 C 0.109375 -0.316406 0.476562 0.0390625 0.898438 0.0390625 C 1.332031 0.0390625 1.691406 -0.324219 1.691406 -0.792969 Z M 1.410156 -0.832031 C 1.410156 -0.40625 1.167969 -0.191406 0.898438 -0.191406 C 0.648438 -0.191406 0.390625 -0.394531 0.390625 -0.832031 C 0.390625 -1.265625 0.664062 -1.445312 0.898438 -1.445312 C 1.152344 -1.445312 1.410156 -1.257812 1.410156 -0.832031 Z "/>
</g>
<g id="glyph-0-2">
<path d="M 1.570312 0 L 1.570312 -1.074219 C 1.570312 -1.3125 1.515625 -1.644531 1.074219 -1.644531 C 0.75 -1.644531 0.574219 -1.398438 0.550781 -1.367188 L 0.550781 -1.625 L 0.292969 -1.625 L 0.292969 0 L 0.574219 0 L 0.574219 -0.882812 C 0.574219 -1.121094 0.664062 -1.421875 0.9375 -1.421875 C 1.285156 -1.421875 1.289062 -1.167969 1.289062 -1.050781 L 1.289062 0 Z "/>
</g>
<g id="glyph-0-3">
<path d="M 1.300781 -0.460938 C 1.300781 -0.660156 1.167969 -0.785156 1.160156 -0.792969 C 1.019531 -0.921875 0.921875 -0.941406 0.738281 -0.976562 C 0.542969 -1.015625 0.375 -1.050781 0.375 -1.226562 C 0.375 -1.453125 0.636719 -1.453125 0.683594 -1.453125 C 0.796875 -1.453125 0.988281 -1.4375 1.195312 -1.3125 L 1.238281 -1.550781 C 1.050781 -1.636719 0.902344 -1.664062 0.71875 -1.664062 C 0.628906 -1.664062 0.121094 -1.664062 0.121094 -1.191406 C 0.121094 -1.015625 0.222656 -0.898438 0.3125 -0.832031 C 0.425781 -0.75 0.503906 -0.738281 0.703125 -0.695312 C 0.835938 -0.671875 1.042969 -0.628906 1.042969 -0.4375 C 1.042969 -0.1875 0.757812 -0.1875 0.703125 -0.1875 C 0.410156 -0.1875 0.210938 -0.320312 0.144531 -0.363281 L 0.101562 -0.121094 C 0.214844 -0.0625 0.414062 0.0390625 0.707031 0.0390625 C 0.773438 0.0390625 0.972656 0.0390625 1.125 -0.0742188 C 1.238281 -0.164062 1.300781 -0.308594 1.300781 -0.460938 Z "/>
</g>
<g id="glyph-0-4">
<path d="M 1.496094 -0.789062 C 1.496094 -0.914062 1.492188 -1.183594 1.351562 -1.402344 C 1.203125 -1.625 0.980469 -1.664062 0.851562 -1.664062 C 0.453125 -1.664062 0.125 -1.28125 0.125 -0.816406 C 0.125 -0.339844 0.472656 0.0390625 0.90625 0.0390625 C 1.132812 0.0390625 1.339844 -0.046875 1.480469 -0.148438 L 1.457031 -0.382812 C 1.230469 -0.195312 0.992188 -0.179688 0.910156 -0.179688 C 0.621094 -0.179688 0.390625 -0.4375 0.378906 -0.789062 Z M 1.289062 -0.988281 L 0.398438 -0.988281 C 0.453125 -1.261719 0.644531 -1.445312 0.851562 -1.445312 C 1.039062 -1.445312 1.242188 -1.320312 1.289062 -0.988281 Z "/>
</g>
<g id="glyph-0-5">
<path d="M 1.566406 0.699219 L 1.566406 -1.644531 L 1.296875 -1.644531 L 1.296875 -1.398438 C 1.261719 -1.445312 1.082031 -1.644531 0.800781 -1.644531 C 0.441406 -1.644531 0.128906 -1.285156 0.128906 -0.796875 C 0.128906 -0.339844 0.394531 0.0390625 0.738281 0.0390625 C 0.941406 0.0390625 1.132812 -0.0429688 1.285156 -0.179688 L 1.285156 0.699219 Z M 1.296875 -0.503906 C 1.296875 -0.441406 1.296875 -0.433594 1.261719 -0.386719 C 1.167969 -0.242188 1.03125 -0.179688 0.902344 -0.179688 C 0.628906 -0.179688 0.410156 -0.460938 0.410156 -0.796875 C 0.410156 -1.167969 0.671875 -1.410156 0.933594 -1.410156 C 1.183594 -1.410156 1.296875 -1.15625 1.296875 -1.011719 Z "/>
</g>
<g id="glyph-0-6">
<path d="M 1.570312 0 L 1.570312 -1.601562 L 1.289062 -1.601562 L 1.289062 -0.554688 C 1.289062 -0.285156 1.085938 -0.160156 0.855469 -0.160156 C 0.597656 -0.160156 0.574219 -0.253906 0.574219 -0.40625 L 0.574219 -1.601562 L 0.292969 -1.601562 L 0.292969 -0.394531 C 0.292969 -0.132812 0.375 0.0390625 0.675781 0.0390625 C 0.867188 0.0390625 1.121094 -0.0195312 1.300781 -0.171875 L 1.300781 0 Z "/>
</g>
<g id="glyph-0-7">
<path d="M 1.496094 -0.789062 C 1.496094 -0.914062 1.492188 -1.183594 1.351562 -1.402344 C 1.203125 -1.625 0.980469 -1.664062 0.851562 -1.664062 C 0.453125 -1.664062 0.125 -1.28125 0.125 -0.816406 C 0.125 -0.339844 0.472656 0.0390625 0.90625 0.0390625 C 1.132812 0.0390625 1.339844 -0.046875 1.480469 -0.148438 L 1.457031 -0.382812 C 1.230469 -0.195312 0.992188 -0.179688 0.910156 -0.179688 C 0.621094 -0.179688 0.390625 -0.4375 0.378906 -0.789062 Z M 1.289062 -0.988281 L 0.398438 -0.988281 C 0.453125 -1.261719 0.644531 -1.445312 0.851562 -1.445312 C 1.039062 -1.445312 1.242188 -1.320312 1.289062 -0.988281 Z M 1.359375 -1.894531 L 0.910156 -2.515625 L 0.691406 -2.515625 L 0.242188 -1.894531 L 0.453125 -1.894531 L 0.800781 -2.339844 L 1.148438 -1.894531 Z "/>
</g>
<g id="glyph-0-8">
<path d="M 1.5 -0.144531 L 1.476562 -0.386719 C 1.292969 -0.242188 1.097656 -0.191406 0.914062 -0.191406 C 0.613281 -0.191406 0.410156 -0.453125 0.410156 -0.804688 C 0.410156 -1.085938 0.546875 -1.433594 0.929688 -1.433594 C 1.117188 -1.433594 1.238281 -1.40625 1.4375 -1.273438 L 1.480469 -1.507812 C 1.265625 -1.632812 1.144531 -1.664062 0.925781 -1.664062 C 0.421875 -1.664062 0.128906 -1.226562 0.128906 -0.800781 C 0.128906 -0.355469 0.457031 0.0390625 0.910156 0.0390625 C 1.105469 0.0390625 1.304688 -0.0117188 1.5 -0.144531 Z "/>
</g>
<g id="glyph-0-9">
<path d="M 0.5625 0 L 0.5625 -1.601562 L 0.292969 -1.601562 L 0.292969 0 Z M 0.59375 -2.042969 L 0.59375 -2.363281 L 0.269531 -2.363281 L 0.269531 -2.042969 Z "/>
</g>
<g id="glyph-0-10">
<path d="M 1.476562 0 L 1.476562 -1.042969 C 1.476562 -1.410156 1.214844 -1.664062 0.882812 -1.664062 C 0.644531 -1.664062 0.484375 -1.605469 0.3125 -1.507812 L 0.335938 -1.269531 C 0.523438 -1.40625 0.703125 -1.453125 0.882812 -1.453125 C 1.050781 -1.453125 1.195312 -1.308594 1.195312 -1.039062 L 1.195312 -0.882812 C 0.652344 -0.878906 0.195312 -0.726562 0.195312 -0.40625 C 0.195312 -0.253906 0.292969 0.0390625 0.605469 0.0390625 C 0.65625 0.0390625 0.996094 0.03125 1.207031 -0.128906 L 1.207031 0 Z M 1.195312 -0.476562 C 1.195312 -0.40625 1.195312 -0.316406 1.074219 -0.25 C 0.96875 -0.183594 0.832031 -0.179688 0.789062 -0.179688 C 0.617188 -0.179688 0.453125 -0.261719 0.453125 -0.414062 C 0.453125 -0.667969 1.039062 -0.691406 1.195312 -0.699219 Z "/>
</g>
<g id="glyph-0-11">
<rect x="0" y="0" width="0" height="0" mask="url(#mask-0)"/>
</g>
<g id="glyph-0-12">
<path d="M 2.574219 0 L 2.574219 -1.074219 C 2.574219 -1.316406 2.515625 -1.644531 2.078125 -1.644531 C 1.863281 -1.644531 1.675781 -1.542969 1.542969 -1.347656 C 1.449219 -1.621094 1.195312 -1.644531 1.078125 -1.644531 C 0.820312 -1.644531 0.648438 -1.496094 0.550781 -1.363281 L 0.550781 -1.625 L 0.292969 -1.625 L 0.292969 0 L 0.574219 0 L 0.574219 -0.882812 C 0.574219 -1.128906 0.671875 -1.421875 0.9375 -1.421875 C 1.273438 -1.421875 1.292969 -1.1875 1.292969 -1.050781 L 1.292969 0 L 1.574219 0 L 1.574219 -0.882812 C 1.574219 -1.128906 1.671875 -1.421875 1.9375 -1.421875 C 2.273438 -1.421875 2.292969 -1.1875 2.292969 -1.050781 L 2.292969 0 Z "/>
</g>
<g id="glyph-0-13">
<path d="M 1.199219 -0.0976562 L 1.140625 -0.308594 C 1.046875 -0.234375 0.929688 -0.191406 0.816406 -0.191406 C 0.683594 -0.191406 0.632812 -0.300781 0.632812 -0.492188 L 0.632812 -1.394531 L 1.140625 -1.394531 L 1.140625 -1.601562 L 0.632812 -1.601562 L 0.632812 -2.0625 L 0.382812 -2.0625 L 0.382812 -1.601562 L 0.0703125 -1.601562 L 0.0703125 -1.394531 L 0.371094 -1.394531 L 0.371094 -0.429688 C 0.371094 -0.214844 0.421875 0.0390625 0.671875 0.0390625 C 0.925781 0.0390625 1.109375 -0.0507812 1.199219 -0.0976562 Z "/>
</g>
<g id="glyph-0-14">
<path d="M 1.476562 0 L 1.476562 -1.042969 C 1.476562 -1.410156 1.214844 -1.664062 0.882812 -1.664062 C 0.644531 -1.664062 0.484375 -1.605469 0.3125 -1.507812 L 0.335938 -1.269531 C 0.523438 -1.40625 0.703125 -1.453125 0.882812 -1.453125 C 1.050781 -1.453125 1.195312 -1.308594 1.195312 -1.039062 L 1.195312 -0.882812 C 0.652344 -0.878906 0.195312 -0.726562 0.195312 -0.40625 C 0.195312 -0.253906 0.292969 0.0390625 0.605469 0.0390625 C 0.65625 0.0390625 0.996094 0.03125 1.207031 -0.128906 L 1.207031 0 Z M 1.195312 -0.476562 C 1.195312 -0.40625 1.195312 -0.316406 1.074219 -0.25 C 0.96875 -0.183594 0.832031 -0.179688 0.789062 -0.179688 C 0.617188 -0.179688 0.453125 -0.261719 0.453125 -0.414062 C 0.453125 -0.667969 1.039062 -0.691406 1.195312 -0.699219 Z M 1.375 -2.503906 L 1.09375 -2.503906 L 0.613281 -1.902344 L 0.835938 -1.902344 Z "/>
</g>
</g>
<image id="source-334" x="0" y="0" width="0" height="0"/>
<mask id="mask-0">
<use xlink:href="#source-334"/>
</mask>
</defs>
<g fill="rgb(90.980392%, 63.529412%, 39.607843%)" fill-opacity="1">
<use xlink:href="#glyph-0-0" x="30" y="24.166016"/>
<use xlink:href="#glyph-0-1" x="32" y="24.166016"/>
<use xlink:href="#glyph-0-2" x="34" y="24.166016"/>
<use xlink:href="#glyph-0-3" x="36" y="24.166016"/>
<use xlink:href="#glyph-0-4" x="37" y="24.166016"/>
<use xlink:href="#glyph-0-5" x="39" y="24.166016"/>
<use xlink:href="#glyph-0-6" x="41" y="24.166016"/>
<use xlink:href="#glyph-0-7" x="43" y="24.166016"/>
<use xlink:href="#glyph-0-2" x="45" y="24.166016"/>
<use xlink:href="#glyph-0-8" x="47" y="24.166016"/>
<use xlink:href="#glyph-0-9" x="49" y="24.166016"/>
<use xlink:href="#glyph-0-10" x="50" y="24.166016"/>
<use xlink:href="#glyph-0-11" x="52" y="24.166016"/>
<use xlink:href="#glyph-0-12" x="53" y="24.166016"/>
<use xlink:href="#glyph-0-10" x="56" y="24.166016"/>
<use xlink:href="#glyph-0-13" x="58" y="24.166016"/>
<use xlink:href="#glyph-0-4" x="59" y="24.166016"/>
<use xlink:href="#glyph-0-12" x="61" y="24.166016"/>
<use xlink:href="#glyph-0-14" x="64" y="24.166016"/>
<use xlink:href="#glyph-0-13" x="66" y="24.166016"/>
<use xlink:href="#glyph-0-9" x="67" y="24.166016"/>
<use xlink:href="#glyph-0-8" x="68" y="24.166016"/>
<use xlink:href="#glyph-0-10" x="70" y="24.166016"/>
</g>
</svg>
