<?xml version="1.0" encoding="UTF-8"?>
<svg xmlns="http://www.w3.org/2000/svg" xmlns:xlink="http://www.w3.org/1999/xlink" width="1920" height="1080" viewBox="0 0 1920 1080">
<defs>
<g>
<g id="glyph-0-0">
<path d="M 2.230469 -2.21875 L 1.855469 -2.21875 C 1.203125 -0.628906 1.195312 -0.398438 1.191406 -0.285156 L 1.183594 -0.285156 C 1.15625 -0.621094 0.753906 -1.550781 0.734375 -1.59375 L 0.464844 -2.21875 L 0.0703125 -2.21875 L 1.039062 0 L 0.859375 0.449219 C 0.730469 0.738281 0.644531 0.738281 0.574219 0.738281 C 0.496094 0.738281 0.335938 0.71875 0.183594 0.660156 L 0.214844 0.984375 C 0.324219 1.011719 0.464844 1.023438 0.574219 1.023438 C 0.75 1.023438 0.933594 0.964844 1.140625 0.453125 Z "/>
</g>
<g id="glyph-0-1">
<rect x="0" y="0" width="0" height="0" mask="url(#mask-0)"/>
</g>
<g id="glyph-0-2">
<path d="M 3.605469 -1.75 C 3.605469 -1.851562 3.511719 -1.851562 3.441406 -1.851562 L 0.445312 -1.851562 C 0.375 -1.851562 0.28125 -1.851562 0.28125 -1.75 C 0.28125 -1.648438 0.375 -1.648438 0.449219 -1.648438 L 3.433594 -1.648438 C 3.511719 -1.648438 3.605469 -1.648438 3.605469 -1.75 Z M 3.605469 -0.75 C 3.605469 -0.851562 3.511719 -0.851562 3.433594 -0.851562 L 0.449219 -0.851562 C 0.375 -0.851562 0.28125 -0.851562 0.28125 -0.75 C 0.28125 -0.648438 0.375 -0.648438 0.445312 -0.648438 L 3.441406 -0.648438 C 3.511719 -0.648438 3.605469 -0.648438 3.605469 -0.75 Z "/>
</g>
<g id="glyph-0-3">
<path d="M 3.191406 0 L 1.886719 -3.46875 L 1.445312 -3.46875 L 0.140625 0 L 0.511719 0 L 0.894531 -1.019531 L 2.351562 -1.019531 L 2.730469 0 Z M 2.238281 -1.300781 L 1 -1.300781 C 1.253906 -2.015625 1.070312 -1.488281 1.324219 -2.203125 C 1.429688 -2.5 1.585938 -2.925781 1.621094 -3.109375 L 1.625 -3.109375 C 1.636719 -3.039062 1.671875 -2.914062 1.785156 -2.585938 Z "/>
</g>
<g id="glyph-0-4">
<path d="M 1.660156 1.25 C 1.421875 1.011719 0.785156 0.363281 0.785156 -1.25 C 0.785156 -1.53125 0.800781 -2.113281 1.003906 -2.703125 C 1.210938 -3.285156 1.496094 -3.585938 1.660156 -3.75 L 1.355469 -3.75 C 1.195312 -3.601562 0.859375 -3.296875 0.628906 -2.679688 C 0.429688 -2.144531 0.394531 -1.613281 0.394531 -1.25 C 0.394531 0.363281 1.113281 1.03125 1.355469 1.25 Z "/>
</g>
<g id="glyph-0-5">
<path d="M 1.660156 -0.136719 L 1.578125 -0.429688 C 1.449219 -0.324219 1.289062 -0.265625 1.128906 -0.265625 C 0.945312 -0.265625 0.875 -0.414062 0.875 -0.679688 L 0.875 -1.929688 L 1.578125 -1.929688 L 1.578125 -2.21875 L 0.875 -2.21875 L 0.875 -2.855469 L 0.53125 -2.855469 L 0.53125 -2.21875 L 0.09375 -2.21875 L 0.09375 -1.929688 L 0.515625 -1.929688 L 0.515625 -0.59375 C 0.515625 -0.296875 0.585938 0.0546875 0.929688 0.0546875 C 1.28125 0.0546875 1.535156 -0.0703125 1.660156 -0.136719 Z "/>
</g>
<g id="glyph-0-6">
<path d="M 1.546875 -1.25 C 1.546875 -2.863281 0.824219 -3.53125 0.585938 -3.75 L 0.28125 -3.75 C 0.519531 -3.511719 1.15625 -2.863281 1.15625 -1.25 C 1.15625 -0.96875 1.140625 -0.386719 0.933594 0.203125 C 0.730469 0.785156 0.445312 1.085938 0.28125 1.25 L 0.585938 1.25 C 0.746094 1.101562 1.078125 0.796875 1.308594 0.179688 C 1.511719 -0.355469 1.546875 -0.886719 1.546875 -1.25 Z "/>
</g>
<g id="glyph-0-7">
<path d="M 0.898438 -1.804688 L 0.898438 -2.21875 L 0.484375 -2.21875 L 0.484375 -1.804688 Z M 0.898438 0 L 0.898438 -0.414062 L 0.484375 -0.414062 L 0.484375 0 Z "/>
</g>
<g id="glyph-0-8">
<path d="M 3.566406 0 L 3.566406 -1.488281 C 3.566406 -1.824219 3.484375 -2.273438 2.878906 -2.273438 C 2.578125 -2.273438 2.320312 -2.136719 2.136719 -1.863281 C 2.003906 -2.246094 1.65625 -2.273438 1.496094 -2.273438 C 1.136719 -2.273438 0.898438 -2.070312 0.765625 -1.890625 L 0.765625 -2.25 L 0.40625 -2.25 L 0.40625 0 L 0.796875 0 L 0.796875 -1.226562 C 0.796875 -1.566406 0.929688 -1.96875 1.300781 -1.96875 C 1.765625 -1.96875 1.789062 -1.644531 1.789062 -1.453125 L 1.789062 0 L 2.179688 0 L 2.179688 -1.226562 C 2.179688 -1.566406 2.316406 -1.96875 2.683594 -1.96875 C 3.148438 -1.96875 3.175781 -1.644531 3.175781 -1.453125 L 3.175781 0 Z "/>
</g>
<g id="glyph-0-9">
<path d="M 2.046875 0 L 2.046875 -1.445312 C 2.046875 -1.953125 1.679688 -2.304688 1.21875 -2.304688 C 0.894531 -2.304688 0.671875 -2.226562 0.433594 -2.089844 L 0.464844 -1.761719 C 0.726562 -1.945312 0.976562 -2.011719 1.21875 -2.011719 C 1.453125 -2.011719 1.65625 -1.808594 1.65625 -1.441406 L 1.65625 -1.226562 C 0.90625 -1.214844 0.269531 -1.003906 0.269531 -0.566406 C 0.269531 -0.351562 0.40625 0.0546875 0.839844 0.0546875 C 0.910156 0.0546875 1.378906 0.046875 1.671875 -0.179688 L 1.671875 0 Z M 1.65625 -0.660156 C 1.65625 -0.566406 1.65625 -0.441406 1.484375 -0.34375 C 1.339844 -0.253906 1.148438 -0.25 1.09375 -0.25 C 0.855469 -0.25 0.628906 -0.363281 0.628906 -0.574219 C 0.628906 -0.925781 1.441406 -0.960938 1.65625 -0.96875 Z "/>
</g>
<g id="glyph-0-10">
<path d="M 1.800781 -0.640625 C 1.800781 -0.914062 1.613281 -1.085938 1.605469 -1.101562 C 1.410156 -1.273438 1.273438 -1.304688 1.023438 -1.351562 C 0.75 -1.40625 0.519531 -1.453125 0.519531 -1.699219 C 0.519531 -2.011719 0.878906 -2.011719 0.945312 -2.011719 C 1.105469 -2.011719 1.371094 -1.988281 1.65625 -1.820312 L 1.714844 -2.144531 C 1.453125 -2.265625 1.25 -2.304688 0.996094 -2.304688 C 0.871094 -2.304688 0.164062 -2.304688 0.164062 -1.648438 C 0.164062 -1.40625 0.308594 -1.246094 0.433594 -1.148438 C 0.589844 -1.039062 0.699219 -1.019531 0.976562 -0.964844 C 1.15625 -0.929688 1.445312 -0.871094 1.445312 -0.605469 C 1.445312 -0.261719 1.050781 -0.261719 0.976562 -0.261719 C 0.570312 -0.261719 0.289062 -0.445312 0.199219 -0.503906 L 0.140625 -0.164062 C 0.300781 -0.0859375 0.574219 0.0546875 0.980469 0.0546875 C 1.070312 0.0546875 1.34375 0.0546875 1.558594 -0.105469 C 1.714844 -0.226562 1.800781 -0.425781 1.800781 -0.640625 Z "/>
</g>
</g>
<image id="source-840" x="0" y="0" width="0" height="0"/>
<mask id="mask-0">
<use xlink:href="#source-840"/>
</mask>
</defs>
<g fill="rgb(72.156863%, 83.137255%, 92.54902%)" fill-opacity="1">
<use xlink:href="#glyph-0-0" x="30" y="25.769531"/>
<use xlink:href="#glyph-0-1" x="32" y="25.769531"/>
<use xlink:href="#glyph-0-2" x="34" y="25.769531"/>
<use xlink:href="#glyph-0-1" x="38" y="25.769531"/>
<use xlink:href="#glyph-0-3" x="40" y="25.769531"/>
<use xlink:href="#glyph-0-4" x="43" y="25.769531"/>
<use xlink:href="#glyph-0-5" x="45" y="25.769531"/>
<use xlink:href="#glyph-0-6" x="47" y="25.769531"/>
<use xlink:href="#glyph-0-7" x="49" y="25.769531"/>
<use xlink:href="#glyph-0-1" x="50" y="25.769531"/>
<use xlink:href="#glyph-0-8" x="52" y="25.769531"/>
<use xlink:href="#glyph-0-9" x="56" y="25.769531"/>
<use xlink:href="#glyph-0-10" x="58" y="25.769531"/>
<use xlink:href="#glyph-0-10" x="60" y="25.769531"/>
<use xlink:href="#glyph-0-9" x="62" y="25.769531"/>
</g>
</svg>
