<?xml version="1.0" encoding="UTF-8"?>
<svg xmlns="http://www.w3.org/2000/svg" xmlns:xlink="http://www.w3.org/1999/xlink" width="1920" height="1080" viewBox="0 0 1920 1080">
<defs>
<g>
<g id="glyph-0-0">
<path d="M 0.660156 0 L 0.660156 -2.503906 L 0.339844 -2.503906 L 0.339844 0 Z "/>
</g>
<g id="glyph-0-1">
<path d="M 1.566406 0 L 1.566406 -2.503906 L 1.296875 -2.503906 L 1.296875 -1.445312 C 1.105469 -1.601562 0.902344 -1.644531 0.769531 -1.644531 C 0.410156 -1.644531 0.128906 -1.265625 0.128906 -0.800781 C 0.128906 -0.328125 0.40625 0.0390625 0.75 0.0390625 C 0.871094 0.0390625 1.082031 0.0078125 1.285156 -0.1875 L 1.285156 0 Z M 1.285156 -0.5 C 1.285156 -0.453125 1.28125 -0.386719 1.167969 -0.28125 C 1.082031 -0.210938 0.992188 -0.179688 0.898438 -0.179688 C 0.675781 -0.179688 0.410156 -0.351562 0.410156 -0.796875 C 0.410156 -1.273438 0.722656 -1.421875 0.933594 -1.421875 C 1.097656 -1.421875 1.207031 -1.339844 1.285156 -1.222656 Z "/>
</g>
<g id="glyph-0-2">
<path d="M 1.496094 -0.789062 C 1.496094 -0.914062 1.492188 -1.183594 1.351562 -1.402344 C 1.203125 -1.625 0.980469 -1.664062 0.851562 -1.664062 C 0.453125 -1.664062 0.125 -1.28125 0.125 -0.816406 C 0.125 -0.339844 0.472656 0.0390625 0.90625 0.0390625 C 1.132812 0.0390625 1.339844 -0.046875 1.480469 -0.148438 L 1.457031 -0.382812 C 1.230469 -0.195312 0.992188 -0.179688 0.910156 -0.179688 C 0.621094 -0.179688 0.390625 -0.4375 0.378906 -0.789062 Z M 1.289062 -0.988281 L 0.398438 -0.988281 C 0.453125 -1.261719 0.644531 -1.445312 0.851562 -1.445312 C 1.039062 -1.445312 1.242188 -1.320312 1.289062 -0.988281 Z "/>
</g>
<g id="glyph-0-3">
<path d="M 0.5625 0 L 0.5625 -1.601562 L 0.292969 -1.601562 L 0.292969 0 Z M 0.59375 -2.042969 L 0.59375 -2.363281 L 0.269531 -2.363281 L 0.269531 -2.042969 Z "/>
</g>
<g id="glyph-0-4">
<path d="M 1.476562 0 L 1.476562 -1.042969 C 1.476562 -1.410156 1.214844 -1.664062 0.882812 -1.664062 C 0.644531 -1.664062 0.484375 -1.605469 0.3125 -1.507812 L 0.335938 -1.269531 C 0.523438 -1.40625 0.703125 -1.453125 0.882812 -1.453125 C 1.050781 -1.453125 1.195312 -1.308594 1.195312 -1.039062 L 1.195312 -0.882812 C 0.652344 -0.878906 0.195312 -0.726562 0.195312 -0.40625 C 0.195312 -0.253906 0.292969 0.0390625 0.605469 0.0390625 C 0.65625 0.0390625 0.996094 0.03125 1.207031 -0.128906 L 1.207031 0 Z M 1.195312 -0.476562 C 1.195312 -0.40625 1.195312 -0.316406 1.074219 -0.25 C 0.96875 -0.183594 0.832031 -0.179688 0.789062 -0.179688 C 0.617188 -0.179688 0.453125 -0.261719 0.453125 -0.414062 C 0.453125 -0.667969 1.039062 -0.691406 1.195312 -0.699219 Z "/>
</g>
<g id="glyph-0-5">
<path d="M 0.996094 -0.695312 L 0.996094 -0.90625 L 0.0390625 -0.90625 L 0.0390625 -0.695312 Z "/>
</g>
<g id="glyph-0-6">
<path d="M 1.5 -0.144531 L 1.476562 -0.386719 C 1.292969 -0.242188 1.097656 -0.191406 0.914062 -0.191406 C 0.613281 -0.191406 0.410156 -0.453125 0.410156 -0.804688 C 0.410156 -1.085938 0.546875 -1.433594 0.929688 -1.433594 C 1.117188 -1.433594 1.238281 -1.40625 1.4375 -1.273438 L 1.480469 -1.507812 C 1.265625 -1.632812 1.144531 -1.664062 0.925781 -1.664062 C 0.421875 -1.664062 0.128906 -1.226562 0.128906 -0.800781 C 0.128906 -0.355469 0.457031 0.0390625 0.910156 0.0390625 C 1.105469 0.0390625 1.304688 -0.0117188 1.5 -0.144531 Z "/>
</g>
<g id="glyph-0-7">
<path d="M 1.570312 0 L 1.570312 -1.074219 C 1.570312 -1.3125 1.515625 -1.644531 1.074219 -1.644531 C 0.851562 -1.644531 0.679688 -1.53125 0.5625 -1.382812 L 0.5625 -2.503906 L 0.292969 -2.503906 L 0.292969 0 L 0.574219 0 L 0.574219 -0.882812 C 0.574219 -1.121094 0.664062 -1.421875 0.9375 -1.421875 C 1.285156 -1.421875 1.289062 -1.167969 1.289062 -1.050781 L 1.289062 0 Z "/>
</g>
<g id="glyph-0-8">
<path d="M 1.609375 -1.601562 L 1.339844 -1.601562 L 1.054688 -0.851562 C 0.976562 -0.652344 0.867188 -0.359375 0.835938 -0.191406 C 0.8125 -0.320312 0.71875 -0.570312 0.683594 -0.667969 L 0.332031 -1.601562 L 0.0507812 -1.601562 L 0.671875 0 L 0.988281 0 Z "/>
</g>
</g>
</defs>
<g fill="rgb(90.980392%, 63.529412%, 39.607843%)" fill-opacity="1">
<use xlink:href="#glyph-0-0" x="30" y="24.166016"/>
<use xlink:href="#glyph-0-1" x="31" y="24.166016"/>
<use xlink:href="#glyph-0-2" x="33" y="24.166016"/>
<use xlink:href="#glyph-0-3" x="35" y="24.166016"/>
<use xlink:href="#glyph-0-4" x="36" y="24.166016"/>
<use xlink:href="#glyph-0-5" x="38" y="24.166016"/>
<use xlink:href="#glyph-0-6" x="39" y="24.166016"/>
<use xlink:href="#glyph-0-7" x="41" y="24.166016"/>
<use xlink:href="#glyph-0-4" x="43" y="24.166016"/>
<use xlink:href="#glyph-0-8" x="45" y="24.166016"/>
<use xlink:href="#glyph-0-2" x="47" y="24.166016"/>
</g>
</svg>
